<svg width="247" height="43" viewBox="0 0 247 43" fill="none" xmlns="http://www.w3.org/2000/svg">
<path d="M218 10L34 10" stroke="#B8B8B8"/>
<path d="M6.72469 33.59V33.55H1.59469V32.5H8.04469V33.59C8.04469 33.91 8.04135 34.2333 8.03469 34.56C8.03469 34.8867 8.02469 35.23 8.00469 35.59C7.98469 35.9433 7.95135 36.32 7.90469 36.72C7.85802 37.12 7.79135 37.5567 7.70469 38.03L6.39469 37.91C6.47469 37.47 6.53469 37.0567 6.57469 36.67C6.62135 36.2833 6.65469 35.9133 6.67469 35.56C6.70135 35.2067 6.71469 34.87 6.71469 34.55C6.72135 34.2233 6.72469 33.9033 6.72469 33.59ZM0.734688 38.58H9.06469V39.66H0.734688V38.58ZM15.9539 33.24V32.77H10.9539V31.79H17.2539V34.16H12.2739V34.67H17.4239V35.65H10.9739V33.24H15.9539ZM9.93391 36.11H18.2739V37.14H14.7439V37.92H13.4239V37.14H9.93391V36.11ZM15.9739 38.27V37.54H17.2839V40.75H10.9739V37.54H12.2739V38.27H15.9739ZM15.9739 39.77V39.22H12.2739V39.77H15.9739ZM27.7788 31.64H29.1088V40.88H27.7788V36.03H26.3388V34.96H27.7788V31.64ZM23.0188 35.88V37.67C23.6454 37.6633 24.2321 37.6433 24.7788 37.61C25.3254 37.57 25.8921 37.5033 26.4787 37.41L26.5988 38.48C25.9188 38.5867 25.2521 38.66 24.5988 38.7C23.9454 38.7333 23.2388 38.75 22.4788 38.75H21.7188V34.85H24.5388V33.48H21.6988V32.43H25.8488V35.88H23.0188ZM38.218 31.65V36.98H36.898V31.65H38.218ZM36.188 35L36.328 36.07C35.5613 36.23 34.8146 36.34 34.088 36.4C33.368 36.4533 32.6446 36.48 31.918 36.48H31.118V32.23H32.428V35.4C33.0546 35.3867 33.6746 35.35 34.288 35.29C34.908 35.23 35.5413 35.1333 36.188 35ZM35.108 37.11C35.588 37.11 36.0213 37.1533 36.408 37.24C36.8013 37.3267 37.1346 37.45 37.408 37.61C37.6813 37.77 37.8913 37.9667 38.038 38.2C38.1846 38.4333 38.258 38.6967 38.258 38.99C38.258 39.2833 38.1846 39.5467 38.038 39.78C37.8913 40.0133 37.6813 40.21 37.408 40.37C37.1346 40.53 36.8013 40.6533 36.408 40.74C36.0213 40.8267 35.588 40.87 35.108 40.87C34.628 40.87 34.1946 40.8267 33.808 40.74C33.4213 40.6533 33.0913 40.53 32.818 40.37C32.5446 40.21 32.3346 40.0133 32.188 39.78C32.0413 39.5467 31.968 39.2833 31.968 38.99C31.968 38.6967 32.0413 38.4333 32.188 38.2C32.3346 37.9667 32.5446 37.77 32.818 37.61C33.0913 37.45 33.4213 37.3267 33.808 37.24C34.1946 37.1533 34.628 37.11 35.108 37.11ZM35.108 39.82C36.3346 39.82 36.948 39.5433 36.948 38.99C36.948 38.4367 36.3346 38.16 35.108 38.16C33.888 38.16 33.278 38.4367 33.278 38.99C33.278 39.5433 33.888 39.82 35.108 39.82ZM47.0628 33.87H48.4428V31.65H49.7628V37.13H48.4428V34.94H47.0628V33.87ZM47.6128 35.85L46.9728 36.88C46.4728 36.7133 46.0495 36.4767 45.7028 36.17C45.3561 35.8567 45.0828 35.4967 44.8828 35.09C44.6828 35.5567 44.3995 35.97 44.0328 36.33C43.6728 36.6833 43.2228 36.95 42.6828 37.13L42.0128 36.09C42.3795 35.9633 42.6961 35.8 42.9628 35.6C43.2295 35.3933 43.4495 35.1667 43.6228 34.92C43.8028 34.6667 43.9361 34.4 44.0228 34.12C44.1161 33.8333 44.1695 33.5467 44.1828 33.26H42.3728V32.2H47.3228V33.26H45.5328C45.5395 33.52 45.5861 33.78 45.6728 34.04C45.7595 34.3 45.8861 34.5467 46.0528 34.78C46.2261 35.0067 46.4428 35.2133 46.7028 35.4C46.9628 35.5867 47.2661 35.7367 47.6128 35.85ZM46.6528 37.33C47.1395 37.33 47.5761 37.37 47.9628 37.45C48.3561 37.53 48.6861 37.6467 48.9528 37.8C49.2261 37.9467 49.4361 38.13 49.5828 38.35C49.7295 38.57 49.8028 38.82 49.8028 39.1C49.8028 39.38 49.7295 39.63 49.5828 39.85C49.4361 40.07 49.2261 40.2533 48.9528 40.4C48.6861 40.5533 48.3561 40.67 47.9628 40.75C47.5761 40.83 47.1395 40.87 46.6528 40.87C46.1661 40.87 45.7261 40.83 45.3328 40.75C44.9395 40.67 44.6061 40.5533 44.3328 40.4C44.0661 40.2533 43.8595 40.07 43.7128 39.85C43.5661 39.63 43.4928 39.38 43.4928 39.1C43.4928 38.82 43.5661 38.57 43.7128 38.35C43.8595 38.13 44.0661 37.9467 44.3328 37.8C44.6061 37.6467 44.9395 37.53 45.3328 37.45C45.7261 37.37 46.1661 37.33 46.6528 37.33ZM46.6528 39.87C47.8728 39.87 48.4828 39.6133 48.4828 39.1C48.4828 38.5867 47.8728 38.33 46.6528 38.33C45.4261 38.33 44.8128 38.5867 44.8128 39.1C44.8128 39.6133 45.4261 39.87 46.6528 39.87ZM56.082 38.72H59.602V39.79H51.262V38.72H54.762V37.03H52.142V32.22H53.452V33.65H57.392V32.22H58.692V37.03H56.082V38.72ZM53.452 34.69V35.98H57.392V34.69H53.452ZM69.0469 31.65H70.3769V36.6H69.0469V31.65ZM65.3669 32.03C65.7269 32.03 66.0569 32.0833 66.3569 32.19C66.6635 32.2967 66.9269 32.4467 67.1469 32.64C67.3735 32.8333 67.5502 33.0633 67.6769 33.33C67.8035 33.5967 67.8669 33.8867 67.8669 34.2C67.8669 34.52 67.8035 34.8133 67.6769 35.08C67.5502 35.3467 67.3735 35.5767 67.1469 35.77C66.9269 35.9633 66.6635 36.1133 66.3569 36.22C66.0569 36.3267 65.7269 36.38 65.3669 36.38C65.0069 36.38 64.6735 36.3267 64.3669 36.22C64.0669 36.1133 63.8035 35.9633 63.5769 35.77C63.3502 35.5767 63.1735 35.3467 63.0469 35.08C62.9202 34.8133 62.8569 34.52 62.8569 34.2C62.8569 33.8867 62.9202 33.5967 63.0469 33.33C63.1735 33.0633 63.3502 32.8333 63.5769 32.64C63.8035 32.4467 64.0669 32.2967 64.3669 32.19C64.6735 32.0833 65.0069 32.03 65.3669 32.03ZM65.3669 33.12C65.0069 33.12 64.7135 33.2167 64.4869 33.41C64.2602 33.5967 64.1469 33.86 64.1469 34.2C64.1469 34.5467 64.2602 34.8167 64.4869 35.01C64.7135 35.1967 65.0069 35.29 65.3669 35.29C65.7269 35.29 66.0169 35.1967 66.2369 35.01C66.4635 34.8167 66.5769 34.5467 66.5769 34.2C66.5769 33.86 66.4635 33.5967 66.2369 33.41C66.0169 33.2167 65.7269 33.12 65.3669 33.12ZM64.2569 37H65.5669V37.86H69.0669V37H70.3769V40.75H64.2569V37ZM65.5669 38.87V39.71H69.0669V38.87H65.5669ZM78.3061 31.66L79.6261 31.65V37.33H78.3061V35.94H76.8261V34.89H78.3061V33.98H76.8261V32.92H78.3061V31.66ZM76.6261 35.82L76.7561 36.87C76.4894 36.9233 76.2261 36.9667 75.9661 37C75.7061 37.0267 75.4261 37.05 75.1261 37.07C74.8328 37.0833 74.5128 37.0933 74.1661 37.1C73.8194 37.1 73.4261 37.1 72.9861 37.1H72.2761V34.1H74.9961V33.23H72.2661V32.17H76.2961V35.08H73.5861V36.04C73.9128 36.04 74.2128 36.0367 74.4861 36.03C74.7594 36.0233 75.0161 36.01 75.2561 35.99C75.4961 35.97 75.7261 35.9467 75.9461 35.92C76.1728 35.8933 76.3994 35.86 76.6261 35.82ZM73.3261 38.79V37.74H79.6261V40.87H78.3061V38.79H73.3261Z" fill="#030C37"/>
<circle cx="40" cy="10" r="10" fill="#030C37"/>
<path d="M41.1015 12.89V6.52H39.9215L37.7615 8.38L38.5515 9.28L39.7715 8.17L39.7315 8.82V12.89H38.2715V14H42.3915V12.89H41.1015Z" fill="#68F99E"/>
<path d="M196.01 31.64H197.33V40.88H196.01V31.64ZM192.38 32.29C192.726 32.29 193.046 32.3667 193.34 32.52C193.64 32.6733 193.896 32.8933 194.11 33.18C194.323 33.46 194.49 33.8033 194.61 34.21C194.736 34.61 194.8 35.0633 194.8 35.57C194.8 36.0767 194.736 36.5333 194.61 36.94C194.49 37.3467 194.323 37.6933 194.11 37.98C193.896 38.2667 193.64 38.4867 193.34 38.64C193.046 38.7933 192.726 38.87 192.38 38.87C192.033 38.87 191.71 38.7933 191.41 38.64C191.116 38.4867 190.863 38.2667 190.65 37.98C190.436 37.6933 190.266 37.3467 190.14 36.94C190.02 36.5333 189.96 36.0767 189.96 35.57C189.96 35.0633 190.02 34.61 190.14 34.21C190.266 33.8033 190.436 33.46 190.65 33.18C190.863 32.8933 191.116 32.6733 191.41 32.52C191.71 32.3667 192.033 32.29 192.38 32.29ZM192.38 33.48C192.04 33.48 191.763 33.6567 191.55 34.01C191.336 34.3633 191.23 34.8833 191.23 35.57C191.23 36.2567 191.336 36.78 191.55 37.14C191.763 37.4933 192.04 37.67 192.38 37.67C192.72 37.67 192.996 37.4933 193.21 37.14C193.423 36.78 193.53 36.2567 193.53 35.57C193.53 34.8833 193.423 34.3633 193.21 34.01C192.996 33.6567 192.72 33.48 192.38 33.48ZM205.209 31.65H206.529V40.88H205.209V31.65ZM199.349 32.48H203.779V38.67H199.349V32.48ZM202.479 33.52H200.649V37.63H202.479V33.52ZM214.408 31.65H215.728V40.86H214.408V31.65ZM211.658 33.62V34.13C211.658 34.5033 211.705 34.88 211.798 35.26C211.891 35.6333 212.031 35.9867 212.218 36.32C212.411 36.6533 212.648 36.9533 212.928 37.22C213.215 37.4867 213.551 37.7 213.938 37.86L213.218 38.9C212.678 38.6667 212.225 38.34 211.858 37.92C211.498 37.4933 211.215 36.9967 211.008 36.43C210.801 37.0367 210.511 37.5767 210.138 38.05C209.771 38.5233 209.318 38.8833 208.778 39.13L208.028 38.08C208.415 37.9067 208.751 37.6767 209.038 37.39C209.325 37.1033 209.561 36.7867 209.748 36.44C209.941 36.0867 210.085 35.7133 210.178 35.32C210.271 34.92 210.318 34.5233 210.318 34.13V33.62H208.398V32.53H213.558V33.62H211.658ZM225.943 31.65H227.263V36.6H225.943V34.75H224.483C224.423 34.9967 224.319 35.2233 224.173 35.43C224.033 35.6367 223.856 35.8133 223.643 35.96C223.436 36.1067 223.199 36.2233 222.933 36.31C222.673 36.39 222.396 36.43 222.103 36.43C221.756 36.43 221.436 36.3767 221.143 36.27C220.849 36.1567 220.593 36.0033 220.373 35.81C220.159 35.6167 219.989 35.3867 219.863 35.12C219.743 34.8467 219.683 34.55 219.683 34.23C219.683 33.91 219.743 33.6167 219.863 33.35C219.989 33.0767 220.159 32.8433 220.373 32.65C220.593 32.4567 220.849 32.3067 221.143 32.2C221.436 32.0867 221.756 32.03 222.103 32.03C222.396 32.03 222.673 32.07 222.933 32.15C223.193 32.23 223.423 32.3433 223.623 32.49C223.829 32.63 224.006 32.8033 224.153 33.01C224.299 33.21 224.406 33.4333 224.473 33.68H225.943V31.65ZM222.103 35.33C222.443 35.33 222.723 35.2333 222.943 35.04C223.163 34.8467 223.273 34.5767 223.273 34.23C223.273 33.8833 223.163 33.6133 222.943 33.42C222.723 33.2267 222.443 33.13 222.103 33.13C221.763 33.13 221.483 33.2267 221.263 33.42C221.049 33.6133 220.943 33.8833 220.943 34.23C220.943 34.5767 221.049 34.8467 221.263 35.04C221.483 35.2333 221.763 35.33 222.103 35.33ZM225.953 37.88V37H227.263V40.75H221.163V37H222.473V37.88H225.953ZM225.953 39.71V38.88H222.473V39.71H225.953ZM233.582 38.77H237.102V39.85H228.762V38.77H232.262V37.4H229.722V34.28H234.862V33.29H229.712V32.24H236.162V35.31H231.032V36.34H236.372V37.4H233.582V38.77ZM245.411 35.9V36.95H238.931V32.41H245.341V33.48H240.251V35.9H245.411ZM237.961 38.68H246.301V39.76H237.961V38.68Z" fill="#B8B8B8"/>
<circle cx="218" cy="10" r="10" fill="#B8B8B8"/>
<path d="M218.161 6.4C218.508 6.4 218.825 6.45333 219.111 6.56C219.405 6.66667 219.655 6.81667 219.861 7.01C220.068 7.19667 220.228 7.42333 220.341 7.69C220.461 7.95667 220.521 8.25 220.521 8.57C220.515 8.83 220.465 9.08333 220.371 9.33C220.285 9.57 220.171 9.8 220.031 10.02C219.891 10.24 219.731 10.4533 219.551 10.66C219.378 10.8667 219.198 11.0667 219.011 11.26L217.461 12.82C217.595 12.7867 217.721 12.7667 217.841 12.76C217.968 12.7467 218.088 12.74 218.201 12.74H220.601V14H215.391V13.2L217.901 10.73C218.281 10.35 218.581 9.99667 218.801 9.67C219.021 9.34333 219.131 8.98667 219.131 8.6C219.131 8.25333 219.035 7.99333 218.841 7.82C218.655 7.64 218.398 7.55 218.071 7.55C217.791 7.55 217.555 7.63333 217.361 7.8C217.168 7.96 217.031 8.15 216.951 8.37C216.925 8.44333 216.905 8.52 216.891 8.6C216.885 8.68 216.878 8.77 216.871 8.87L215.561 8.65C215.681 7.88333 215.971 7.31667 216.431 6.95C216.898 6.58333 217.475 6.4 218.161 6.4Z" fill="#7B7B7B"/>
</svg>
