<svg width="311" height="43" viewBox="0 0 311 43" fill="none" xmlns="http://www.w3.org/2000/svg">
<path d="M279 9L19 9" stroke="#B8B8B8"/>
<path d="M149 9L19 9" stroke="#030C37"/>
<path d="M1.55875 34.82L7.08875 34.64C7.10208 34.4267 7.10875 34.2233 7.10875 34.03C7.11542 33.8367 7.11875 33.65 7.11875 33.47H1.83875V32.42H8.41875V33.23C8.41875 33.51 8.41542 33.8033 8.40875 34.11C8.40875 34.41 8.39542 34.74 8.36875 35.1C8.34208 35.4533 8.29875 35.84 8.23875 36.26C8.18542 36.68 8.10542 37.1433 7.99875 37.65L6.69875 37.49C6.77208 37.15 6.83542 36.83 6.88875 36.53C6.94208 36.2233 6.98208 35.93 7.00875 35.65L1.72875 35.93L1.55875 34.82ZM5.16875 38.73H9.22875V39.8H0.89875V38.73H3.84875V36.53H5.16875V38.73ZM18.148 35.99L17.588 37.09C16.7813 36.93 16.0913 36.64 15.518 36.22C14.9513 35.8 14.518 35.2967 14.218 34.71C13.918 35.2967 13.4846 35.8033 12.918 36.23C12.3513 36.65 11.6646 36.9367 10.858 37.09L10.298 35.99C10.818 35.9033 11.278 35.7533 11.678 35.54C12.078 35.32 12.4146 35.0667 12.688 34.78C12.9613 34.4933 13.168 34.1833 13.308 33.85C13.448 33.51 13.518 33.1767 13.518 32.85V32.19H14.928V32.85C14.928 33.1833 14.998 33.52 15.138 33.86C15.278 34.1933 15.4846 34.5033 15.758 34.79C16.0313 35.0767 16.368 35.3267 16.768 35.54C17.168 35.7533 17.628 35.9033 18.148 35.99ZM10.098 38.67H18.438V39.74H10.098V38.67ZM27.8728 31.65H29.1928V40.86H27.8728V31.65ZM25.1228 33.62V34.13C25.1228 34.5033 25.1695 34.88 25.2628 35.26C25.3561 35.6333 25.4961 35.9867 25.6828 36.32C25.8761 36.6533 26.1128 36.9533 26.3928 37.22C26.6795 37.4867 27.0161 37.7 27.4028 37.86L26.6828 38.9C26.1428 38.6667 25.6895 38.34 25.3228 37.92C24.9628 37.4933 24.6795 36.9967 24.4728 36.43C24.2661 37.0367 23.9761 37.5767 23.6028 38.05C23.2361 38.5233 22.7828 38.8833 22.2428 39.13L21.4928 38.08C21.8795 37.9067 22.2161 37.6767 22.5028 37.39C22.7895 37.1033 23.0261 36.7867 23.2128 36.44C23.4061 36.0867 23.5495 35.7133 23.6428 35.32C23.7361 34.92 23.7828 34.5233 23.7828 34.13V33.62H21.8628V32.53H27.0228V33.62H25.1228ZM35.762 33.87H37.142V31.65H38.462V37.13H37.142V34.94H35.762V33.87ZM36.312 35.85L35.672 36.88C35.172 36.7133 34.7487 36.4767 34.402 36.17C34.0554 35.8567 33.782 35.4967 33.582 35.09C33.382 35.5567 33.0987 35.97 32.732 36.33C32.372 36.6833 31.922 36.95 31.382 37.13L30.712 36.09C31.0787 35.9633 31.3954 35.8 31.662 35.6C31.9287 35.3933 32.1487 35.1667 32.322 34.92C32.502 34.6667 32.6354 34.4 32.722 34.12C32.8154 33.8333 32.8687 33.5467 32.882 33.26H31.072V32.2H36.022V33.26H34.232C34.2387 33.52 34.2854 33.78 34.372 34.04C34.4587 34.3 34.5854 34.5467 34.752 34.78C34.9254 35.0067 35.142 35.2133 35.402 35.4C35.662 35.5867 35.9654 35.7367 36.312 35.85ZM35.352 37.33C35.8387 37.33 36.2754 37.37 36.662 37.45C37.0554 37.53 37.3854 37.6467 37.652 37.8C37.9254 37.9467 38.1354 38.13 38.282 38.35C38.4287 38.57 38.502 38.82 38.502 39.1C38.502 39.38 38.4287 39.63 38.282 39.85C38.1354 40.07 37.9254 40.2533 37.652 40.4C37.3854 40.5533 37.0554 40.67 36.662 40.75C36.2754 40.83 35.8387 40.87 35.352 40.87C34.8654 40.87 34.4254 40.83 34.032 40.75C33.6387 40.67 33.3054 40.5533 33.032 40.4C32.7654 40.2533 32.5587 40.07 32.412 39.85C32.2654 39.63 32.192 39.38 32.192 39.1C32.192 38.82 32.2654 38.57 32.412 38.35C32.5587 38.13 32.7654 37.9467 33.032 37.8C33.3054 37.6467 33.6387 37.53 34.032 37.45C34.4254 37.37 34.8654 37.33 35.352 37.33ZM35.352 39.87C36.572 39.87 37.182 39.6133 37.182 39.1C37.182 38.5867 36.572 38.33 35.352 38.33C34.1254 38.33 33.512 38.5867 33.512 39.1C33.512 39.6133 34.1254 39.87 35.352 39.87Z" fill="black"/>
<path d="M260.01 31.64H261.33V40.88H260.01V31.64ZM256.38 32.29C256.726 32.29 257.046 32.3667 257.34 32.52C257.64 32.6733 257.896 32.8933 258.11 33.18C258.323 33.46 258.49 33.8033 258.61 34.21C258.736 34.61 258.8 35.0633 258.8 35.57C258.8 36.0767 258.736 36.5333 258.61 36.94C258.49 37.3467 258.323 37.6933 258.11 37.98C257.896 38.2667 257.64 38.4867 257.34 38.64C257.046 38.7933 256.726 38.87 256.38 38.87C256.033 38.87 255.71 38.7933 255.41 38.64C255.116 38.4867 254.863 38.2667 254.65 37.98C254.436 37.6933 254.266 37.3467 254.14 36.94C254.02 36.5333 253.96 36.0767 253.96 35.57C253.96 35.0633 254.02 34.61 254.14 34.21C254.266 33.8033 254.436 33.46 254.65 33.18C254.863 32.8933 255.116 32.6733 255.41 32.52C255.71 32.3667 256.033 32.29 256.38 32.29ZM256.38 33.48C256.04 33.48 255.763 33.6567 255.55 34.01C255.336 34.3633 255.23 34.8833 255.23 35.57C255.23 36.2567 255.336 36.78 255.55 37.14C255.763 37.4933 256.04 37.67 256.38 37.67C256.72 37.67 256.996 37.4933 257.21 37.14C257.423 36.78 257.53 36.2567 257.53 35.57C257.53 34.8833 257.423 34.3633 257.21 34.01C256.996 33.6567 256.72 33.48 256.38 33.48ZM269.209 31.65H270.529V40.88H269.209V31.65ZM263.349 32.48H267.779V38.67H263.349V32.48ZM266.479 33.52H264.649V37.63H266.479V33.52ZM278.408 31.65H279.728V40.86H278.408V31.65ZM275.658 33.62V34.13C275.658 34.5033 275.705 34.88 275.798 35.26C275.891 35.6333 276.031 35.9867 276.218 36.32C276.411 36.6533 276.648 36.9533 276.928 37.22C277.215 37.4867 277.551 37.7 277.938 37.86L277.218 38.9C276.678 38.6667 276.225 38.34 275.858 37.92C275.498 37.4933 275.215 36.9967 275.008 36.43C274.801 37.0367 274.511 37.5767 274.138 38.05C273.771 38.5233 273.318 38.8833 272.778 39.13L272.028 38.08C272.415 37.9067 272.751 37.6767 273.038 37.39C273.325 37.1033 273.561 36.7867 273.748 36.44C273.941 36.0867 274.085 35.7133 274.178 35.32C274.271 34.92 274.318 34.5233 274.318 34.13V33.62H272.398V32.53H277.558V33.62H275.658ZM289.943 31.65H291.263V36.6H289.943V34.75H288.483C288.423 34.9967 288.319 35.2233 288.173 35.43C288.033 35.6367 287.856 35.8133 287.643 35.96C287.436 36.1067 287.199 36.2233 286.933 36.31C286.673 36.39 286.396 36.43 286.103 36.43C285.756 36.43 285.436 36.3767 285.143 36.27C284.849 36.1567 284.593 36.0033 284.373 35.81C284.159 35.6167 283.989 35.3867 283.863 35.12C283.743 34.8467 283.683 34.55 283.683 34.23C283.683 33.91 283.743 33.6167 283.863 33.35C283.989 33.0767 284.159 32.8433 284.373 32.65C284.593 32.4567 284.849 32.3067 285.143 32.2C285.436 32.0867 285.756 32.03 286.103 32.03C286.396 32.03 286.673 32.07 286.933 32.15C287.193 32.23 287.423 32.3433 287.623 32.49C287.829 32.63 288.006 32.8033 288.153 33.01C288.299 33.21 288.406 33.4333 288.473 33.68H289.943V31.65ZM286.103 35.33C286.443 35.33 286.723 35.2333 286.943 35.04C287.163 34.8467 287.273 34.5767 287.273 34.23C287.273 33.8833 287.163 33.6133 286.943 33.42C286.723 33.2267 286.443 33.13 286.103 33.13C285.763 33.13 285.483 33.2267 285.263 33.42C285.049 33.6133 284.943 33.8833 284.943 34.23C284.943 34.5767 285.049 34.8467 285.263 35.04C285.483 35.2333 285.763 35.33 286.103 35.33ZM289.953 37.88V37H291.263V40.75H285.163V37H286.473V37.88H289.953ZM289.953 39.71V38.88H286.473V39.71H289.953ZM297.582 38.77H301.102V39.85H292.762V38.77H296.262V37.4H293.722V34.28H298.862V33.29H293.712V32.24H300.162V35.31H295.032V36.34H300.372V37.4H297.582V38.77ZM309.411 35.9V36.95H302.931V32.41H309.341V33.48H304.251V35.9H309.411ZM301.961 38.68H310.301V39.76H301.961V38.68Z" fill="#B8B8B8"/>
<path d="M117.725 33.59V33.55H112.595V32.5H119.045V33.59C119.045 33.91 119.041 34.2333 119.035 34.56C119.035 34.8867 119.025 35.23 119.005 35.59C118.985 35.9433 118.951 36.32 118.905 36.72C118.858 37.12 118.791 37.5567 118.705 38.03L117.395 37.91C117.475 37.47 117.535 37.0567 117.575 36.67C117.621 36.2833 117.655 35.9133 117.675 35.56C117.701 35.2067 117.715 34.87 117.715 34.55C117.721 34.2233 117.725 33.9033 117.725 33.59ZM111.735 38.58H120.065V39.66H111.735V38.58ZM126.954 33.24V32.77H121.954V31.79H128.254V34.16H123.274V34.67H128.424V35.65H121.974V33.24H126.954ZM120.934 36.11H129.274V37.14H125.744V37.92H124.424V37.14H120.934V36.11ZM126.974 38.27V37.54H128.284V40.75H121.974V37.54H123.274V38.27H126.974ZM126.974 39.77V39.22H123.274V39.77H126.974ZM138.779 31.64H140.109V40.88H138.779V36.03H137.339V34.96H138.779V31.64ZM134.019 35.88V37.67C134.645 37.6633 135.232 37.6433 135.779 37.61C136.325 37.57 136.892 37.5033 137.479 37.41L137.599 38.48C136.919 38.5867 136.252 38.66 135.599 38.7C134.945 38.7333 134.239 38.75 133.479 38.75H132.719V34.85H135.539V33.48H132.699V32.43H136.849V35.88H134.019ZM149.218 31.65V36.98H147.898V31.65H149.218ZM147.188 35L147.328 36.07C146.561 36.23 145.815 36.34 145.088 36.4C144.368 36.4533 143.645 36.48 142.918 36.48H142.118V32.23H143.428V35.4C144.055 35.3867 144.675 35.35 145.288 35.29C145.908 35.23 146.541 35.1333 147.188 35ZM146.108 37.11C146.588 37.11 147.021 37.1533 147.408 37.24C147.801 37.3267 148.135 37.45 148.408 37.61C148.681 37.77 148.891 37.9667 149.038 38.2C149.185 38.4333 149.258 38.6967 149.258 38.99C149.258 39.2833 149.185 39.5467 149.038 39.78C148.891 40.0133 148.681 40.21 148.408 40.37C148.135 40.53 147.801 40.6533 147.408 40.74C147.021 40.8267 146.588 40.87 146.108 40.87C145.628 40.87 145.195 40.8267 144.808 40.74C144.421 40.6533 144.091 40.53 143.818 40.37C143.545 40.21 143.335 40.0133 143.188 39.78C143.041 39.5467 142.968 39.2833 142.968 38.99C142.968 38.6967 143.041 38.4333 143.188 38.2C143.335 37.9667 143.545 37.77 143.818 37.61C144.091 37.45 144.421 37.3267 144.808 37.24C145.195 37.1533 145.628 37.11 146.108 37.11ZM146.108 39.82C147.335 39.82 147.948 39.5433 147.948 38.99C147.948 38.4367 147.335 38.16 146.108 38.16C144.888 38.16 144.278 38.4367 144.278 38.99C144.278 39.5433 144.888 39.82 146.108 39.82ZM158.063 33.87H159.443V31.65H160.763V37.13H159.443V34.94H158.063V33.87ZM158.613 35.85L157.973 36.88C157.473 36.7133 157.049 36.4767 156.703 36.17C156.356 35.8567 156.083 35.4967 155.883 35.09C155.683 35.5567 155.399 35.97 155.033 36.33C154.673 36.6833 154.223 36.95 153.683 37.13L153.013 36.09C153.379 35.9633 153.696 35.8 153.963 35.6C154.229 35.3933 154.449 35.1667 154.623 34.92C154.803 34.6667 154.936 34.4 155.023 34.12C155.116 33.8333 155.169 33.5467 155.183 33.26H153.373V32.2H158.323V33.26H156.533C156.539 33.52 156.586 33.78 156.673 34.04C156.759 34.3 156.886 34.5467 157.053 34.78C157.226 35.0067 157.443 35.2133 157.703 35.4C157.963 35.5867 158.266 35.7367 158.613 35.85ZM157.653 37.33C158.139 37.33 158.576 37.37 158.963 37.45C159.356 37.53 159.686 37.6467 159.953 37.8C160.226 37.9467 160.436 38.13 160.583 38.35C160.729 38.57 160.803 38.82 160.803 39.1C160.803 39.38 160.729 39.63 160.583 39.85C160.436 40.07 160.226 40.2533 159.953 40.4C159.686 40.5533 159.356 40.67 158.963 40.75C158.576 40.83 158.139 40.87 157.653 40.87C157.166 40.87 156.726 40.83 156.333 40.75C155.939 40.67 155.606 40.5533 155.333 40.4C155.066 40.2533 154.859 40.07 154.713 39.85C154.566 39.63 154.493 39.38 154.493 39.1C154.493 38.82 154.566 38.57 154.713 38.35C154.859 38.13 155.066 37.9467 155.333 37.8C155.606 37.6467 155.939 37.53 156.333 37.45C156.726 37.37 157.166 37.33 157.653 37.33ZM157.653 39.87C158.873 39.87 159.483 39.6133 159.483 39.1C159.483 38.5867 158.873 38.33 157.653 38.33C156.426 38.33 155.813 38.5867 155.813 39.1C155.813 39.6133 156.426 39.87 157.653 39.87ZM167.082 38.72H170.602V39.79H162.262V38.72H165.762V37.03H163.142V32.22H164.452V33.65H168.392V32.22H169.692V37.03H167.082V38.72ZM164.452 34.69V35.98H168.392V34.69H164.452ZM180.047 31.65H181.377V36.6H180.047V31.65ZM176.367 32.03C176.727 32.03 177.057 32.0833 177.357 32.19C177.664 32.2967 177.927 32.4467 178.147 32.64C178.374 32.8333 178.55 33.0633 178.677 33.33C178.804 33.5967 178.867 33.8867 178.867 34.2C178.867 34.52 178.804 34.8133 178.677 35.08C178.55 35.3467 178.374 35.5767 178.147 35.77C177.927 35.9633 177.664 36.1133 177.357 36.22C177.057 36.3267 176.727 36.38 176.367 36.38C176.007 36.38 175.674 36.3267 175.367 36.22C175.067 36.1133 174.804 35.9633 174.577 35.77C174.35 35.5767 174.174 35.3467 174.047 35.08C173.92 34.8133 173.857 34.52 173.857 34.2C173.857 33.8867 173.92 33.5967 174.047 33.33C174.174 33.0633 174.35 32.8333 174.577 32.64C174.804 32.4467 175.067 32.2967 175.367 32.19C175.674 32.0833 176.007 32.03 176.367 32.03ZM176.367 33.12C176.007 33.12 175.714 33.2167 175.487 33.41C175.26 33.5967 175.147 33.86 175.147 34.2C175.147 34.5467 175.26 34.8167 175.487 35.01C175.714 35.1967 176.007 35.29 176.367 35.29C176.727 35.29 177.017 35.1967 177.237 35.01C177.464 34.8167 177.577 34.5467 177.577 34.2C177.577 33.86 177.464 33.5967 177.237 33.41C177.017 33.2167 176.727 33.12 176.367 33.12ZM175.257 37H176.567V37.86H180.067V37H181.377V40.75H175.257V37ZM176.567 38.87V39.71H180.067V38.87H176.567ZM189.306 31.66L190.626 31.65V37.33H189.306V35.94H187.826V34.89H189.306V33.98H187.826V32.92H189.306V31.66ZM187.626 35.82L187.756 36.87C187.489 36.9233 187.226 36.9667 186.966 37C186.706 37.0267 186.426 37.05 186.126 37.07C185.833 37.0833 185.513 37.0933 185.166 37.1C184.819 37.1 184.426 37.1 183.986 37.1H183.276V34.1H185.996V33.23H183.266V32.17H187.296V35.08H184.586V36.04C184.913 36.04 185.213 36.0367 185.486 36.03C185.759 36.0233 186.016 36.01 186.256 35.99C186.496 35.97 186.726 35.9467 186.946 35.92C187.173 35.8933 187.399 35.86 187.626 35.82ZM184.326 38.79V37.74H190.626V40.87H189.306V38.79H184.326Z" fill="#030C37"/>
<circle cx="20" cy="10" r="10" fill="#030C37"/>
<path d="M21.1015 12.89V6.52H19.9215L17.7615 8.38L18.5515 9.28L19.7715 8.17L19.7315 8.82V12.89H18.2715V14H22.3915V12.89H21.1015Z" fill="#68F99E"/>
<circle cx="151" cy="10" r="10" fill="#030C37"/>
<path d="M151.161 6.4C149.791 6.4 148.801 7.12 148.561 8.65L149.871 8.87C149.881 8.67 149.901 8.52 149.951 8.37C150.111 7.93 150.511 7.55 151.071 7.55C151.721 7.55 152.131 7.91 152.131 8.6C152.131 9.37 151.661 9.97 150.901 10.73L148.391 13.2V14H153.601V12.74H151.201C150.971 12.74 150.731 12.75 150.461 12.82L152.011 11.26C152.751 10.49 153.491 9.62 153.521 8.57C153.521 7.29 152.551 6.4 151.161 6.4Z" fill="#68F99E"/>
<circle cx="282" cy="10" r="10" fill="#B8B8B8"/>
<path d="M282.211 6.4C282.565 6.40667 282.881 6.46333 283.161 6.57C283.448 6.67667 283.691 6.82 283.891 7C284.098 7.18 284.255 7.39 284.361 7.63C284.468 7.87 284.518 8.13 284.511 8.41C284.511 8.83667 284.405 9.18333 284.191 9.45C283.978 9.71 283.711 9.91667 283.391 10.07C283.831 10.2367 284.148 10.4667 284.341 10.76C284.541 11.0467 284.641 11.41 284.641 11.85C284.635 12.23 284.558 12.5667 284.411 12.86C284.265 13.1533 284.071 13.4 283.831 13.6C283.591 13.7933 283.311 13.94 282.991 14.04C282.678 14.14 282.345 14.19 281.991 14.19C281.611 14.19 281.278 14.1433 280.991 14.05C280.705 13.9567 280.451 13.8233 280.231 13.65C280.018 13.47 279.838 13.2533 279.691 13C279.545 12.74 279.421 12.4467 279.321 12.12L280.541 11.64C280.581 11.8 280.645 11.96 280.731 12.12C280.818 12.28 280.925 12.4267 281.051 12.56C281.178 12.6867 281.318 12.79 281.471 12.87C281.625 12.95 281.791 12.99 281.971 12.99C282.191 12.99 282.381 12.96 282.541 12.9C282.708 12.8333 282.845 12.75 282.951 12.65C283.065 12.5433 283.148 12.4233 283.201 12.29C283.255 12.1567 283.281 12.02 283.281 11.88C283.281 11.7067 283.261 11.5467 283.221 11.4C283.188 11.2533 283.111 11.13 282.991 11.03C282.871 10.9233 282.695 10.8433 282.461 10.79C282.235 10.73 281.925 10.7 281.531 10.7V9.7C281.865 9.69333 282.135 9.66333 282.341 9.61C282.555 9.55667 282.721 9.48333 282.841 9.39C282.961 9.29 283.045 9.17667 283.091 9.05C283.138 8.91667 283.161 8.77 283.161 8.61C283.168 8.26333 283.078 8.00667 282.891 7.84C282.711 7.66667 282.458 7.58 282.131 7.58C281.918 7.58 281.738 7.61333 281.591 7.68C281.445 7.74667 281.321 7.83667 281.221 7.95C281.128 8.06333 281.051 8.2 280.991 8.36C280.938 8.51333 280.895 8.68 280.861 8.86C280.648 8.82667 280.431 8.79 280.211 8.75C279.998 8.70333 279.781 8.66333 279.561 8.63C279.708 7.86333 280.008 7.3 280.461 6.94C280.921 6.58 281.505 6.4 282.211 6.4Z" fill="#7B7B7B"/>
</svg>
