<svg width="311" height="43" viewBox="0 0 311 43" fill="none" xmlns="http://www.w3.org/2000/svg">
<path d="M279 9L19 9" stroke="#030C37"/>
<path d="M149 9L19 9" stroke="#030C37"/>
<path d="M1.55875 34.82L7.08875 34.64C7.10208 34.4267 7.10875 34.2233 7.10875 34.03C7.11542 33.8367 7.11875 33.65 7.11875 33.47H1.83875V32.42H8.41875V33.23C8.41875 33.51 8.41542 33.8033 8.40875 34.11C8.40875 34.41 8.39542 34.74 8.36875 35.1C8.34208 35.4533 8.29875 35.84 8.23875 36.26C8.18542 36.68 8.10542 37.1433 7.99875 37.65L6.69875 37.49C6.77208 37.15 6.83542 36.83 6.88875 36.53C6.94208 36.2233 6.98208 35.93 7.00875 35.65L1.72875 35.93L1.55875 34.82ZM5.16875 38.73H9.22875V39.8H0.89875V38.73H3.84875V36.53H5.16875V38.73ZM18.148 35.99L17.588 37.09C16.7813 36.93 16.0913 36.64 15.518 36.22C14.9513 35.8 14.518 35.2967 14.218 34.71C13.918 35.2967 13.4846 35.8033 12.918 36.23C12.3513 36.65 11.6646 36.9367 10.858 37.09L10.298 35.99C10.818 35.9033 11.278 35.7533 11.678 35.54C12.078 35.32 12.4146 35.0667 12.688 34.78C12.9613 34.4933 13.168 34.1833 13.308 33.85C13.448 33.51 13.518 33.1767 13.518 32.85V32.19H14.928V32.85C14.928 33.1833 14.998 33.52 15.138 33.86C15.278 34.1933 15.4846 34.5033 15.758 34.79C16.0313 35.0767 16.368 35.3267 16.768 35.54C17.168 35.7533 17.628 35.9033 18.148 35.99ZM10.098 38.67H18.438V39.74H10.098V38.67ZM27.8728 31.65H29.1928V40.86H27.8728V31.65ZM25.1228 33.62V34.13C25.1228 34.5033 25.1695 34.88 25.2628 35.26C25.3561 35.6333 25.4961 35.9867 25.6828 36.32C25.8761 36.6533 26.1128 36.9533 26.3928 37.22C26.6795 37.4867 27.0161 37.7 27.4028 37.86L26.6828 38.9C26.1428 38.6667 25.6895 38.34 25.3228 37.92C24.9628 37.4933 24.6795 36.9967 24.4728 36.43C24.2661 37.0367 23.9761 37.5767 23.6028 38.05C23.2361 38.5233 22.7828 38.8833 22.2428 39.13L21.4928 38.08C21.8795 37.9067 22.2161 37.6767 22.5028 37.39C22.7895 37.1033 23.0261 36.7867 23.2128 36.44C23.4061 36.0867 23.5495 35.7133 23.6428 35.32C23.7361 34.92 23.7828 34.5233 23.7828 34.13V33.62H21.8628V32.53H27.0228V33.62H25.1228ZM35.762 33.87H37.142V31.65H38.462V37.13H37.142V34.94H35.762V33.87ZM36.312 35.85L35.672 36.88C35.172 36.7133 34.7487 36.4767 34.402 36.17C34.0554 35.8567 33.782 35.4967 33.582 35.09C33.382 35.5567 33.0987 35.97 32.732 36.33C32.372 36.6833 31.922 36.95 31.382 37.13L30.712 36.09C31.0787 35.9633 31.3954 35.8 31.662 35.6C31.9287 35.3933 32.1487 35.1667 32.322 34.92C32.502 34.6667 32.6354 34.4 32.722 34.12C32.8154 33.8333 32.8687 33.5467 32.882 33.26H31.072V32.2H36.022V33.26H34.232C34.2387 33.52 34.2854 33.78 34.372 34.04C34.4587 34.3 34.5854 34.5467 34.752 34.78C34.9254 35.0067 35.142 35.2133 35.402 35.4C35.662 35.5867 35.9654 35.7367 36.312 35.85ZM35.352 37.33C35.8387 37.33 36.2754 37.37 36.662 37.45C37.0554 37.53 37.3854 37.6467 37.652 37.8C37.9254 37.9467 38.1354 38.13 38.282 38.35C38.4287 38.57 38.502 38.82 38.502 39.1C38.502 39.38 38.4287 39.63 38.282 39.85C38.1354 40.07 37.9254 40.2533 37.652 40.4C37.3854 40.5533 37.0554 40.67 36.662 40.75C36.2754 40.83 35.8387 40.87 35.352 40.87C34.8654 40.87 34.4254 40.83 34.032 40.75C33.6387 40.67 33.3054 40.5533 33.032 40.4C32.7654 40.2533 32.5587 40.07 32.412 39.85C32.2654 39.63 32.192 39.38 32.192 39.1C32.192 38.82 32.2654 38.57 32.412 38.35C32.5587 38.13 32.7654 37.9467 33.032 37.8C33.3054 37.6467 33.6387 37.53 34.032 37.45C34.4254 37.37 34.8654 37.33 35.352 37.33ZM35.352 39.87C36.572 39.87 37.182 39.6133 37.182 39.1C37.182 38.5867 36.572 38.33 35.352 38.33C34.1254 38.33 33.512 38.5867 33.512 39.1C33.512 39.6133 34.1254 39.87 35.352 39.87Z" fill="black"/>
<path d="M261.33 40.88V31.64H260.01V40.88H261.33ZM256.38 32.29C254.99 32.29 253.96 33.55 253.96 35.57C253.96 37.6 254.99 38.87 256.38 38.87C257.77 38.87 258.8 37.6 258.8 35.57C258.8 33.55 257.77 32.29 256.38 32.29ZM256.38 33.48C257.06 33.48 257.53 34.2 257.53 35.57C257.53 36.94 257.06 37.67 256.38 37.67C255.7 37.67 255.23 36.94 255.23 35.57C255.23 34.2 255.7 33.48 256.38 33.48ZM270.529 40.88V31.65H269.209V40.88H270.529ZM267.779 38.67V32.48H263.349V38.67H267.779ZM264.649 37.63V33.52H266.479V37.63H264.649ZM279.728 40.86V31.65H278.408V40.86H279.728ZM275.658 34.13V33.62H277.558V32.53H272.398V33.62H274.318V34.13C274.318 35.7 273.578 37.39 272.028 38.08L272.778 39.13C273.858 38.64 274.598 37.64 275.008 36.43C275.418 37.56 276.138 38.43 277.218 38.9L277.938 37.86C276.398 37.22 275.658 35.63 275.658 34.13ZM291.263 36.6V31.65H289.943V33.68H288.473C288.203 32.69 287.283 32.03 286.103 32.03C284.723 32.03 283.683 32.95 283.683 34.23C283.683 35.51 284.723 36.43 286.103 36.43C287.283 36.43 288.243 35.74 288.483 34.75H289.943V36.6H291.263ZM286.103 35.33C285.423 35.33 284.943 34.92 284.943 34.23C284.943 33.54 285.423 33.13 286.103 33.13C286.783 33.13 287.273 33.54 287.273 34.23C287.273 34.92 286.783 35.33 286.103 35.33ZM291.263 37H289.953V37.88H286.473V37H285.163V40.75H291.263V37ZM286.473 38.88H289.953V39.71H286.473V38.88ZM301.102 39.85V38.77H297.582V37.4H300.372V36.34H295.032V35.31H300.162V32.24H293.712V33.29H298.862V34.28H293.722V37.4H296.262V38.77H292.762V39.85H301.102ZM302.931 36.95H309.411V35.9H304.251V33.48H309.341V32.41H302.931V36.95ZM310.301 39.76V38.68H301.961V39.76H310.301Z" fill="#030C37"/>
<path d="M112.595 33.55H117.725V33.59C117.725 34.84 117.715 36.15 117.395 37.91L118.705 38.03C119.055 36.14 119.045 34.88 119.045 33.59V32.5H112.595V33.55ZM120.065 39.66V38.58H111.735V39.66H120.065ZM121.954 32.77H126.954V33.24H121.974V35.65H128.424V34.67H123.274V34.16H128.254V31.79H121.954V32.77ZM129.274 37.14V36.11H120.934V37.14H124.424V37.92H125.744V37.14H129.274ZM128.284 37.54H126.974V38.27H123.274V37.54H121.974V40.75H128.284V37.54ZM123.274 39.22H126.974V39.77H123.274V39.22ZM140.109 40.88V31.64H138.779V34.96H137.339V36.03H138.779V40.88H140.109ZM134.019 37.67V35.88H136.849V32.43H132.699V33.48H135.539V34.85H132.719V38.75H133.479C134.999 38.75 136.239 38.69 137.599 38.48L137.479 37.41C136.319 37.6 135.269 37.66 134.019 37.67ZM147.898 36.98H149.218V31.65H147.898V36.98ZM147.328 36.07L147.188 35C145.898 35.27 144.678 35.37 143.428 35.4V32.23H142.118V36.48H142.918C144.368 36.48 145.798 36.39 147.328 36.07ZM146.108 37.11C144.188 37.11 142.968 37.82 142.968 38.99C142.968 40.16 144.188 40.87 146.108 40.87C148.038 40.87 149.258 40.16 149.258 38.99C149.258 37.82 148.038 37.11 146.108 37.11ZM146.108 39.82C144.888 39.82 144.278 39.54 144.278 38.99C144.278 38.44 144.888 38.16 146.108 38.16C147.338 38.16 147.948 38.44 147.948 38.99C147.948 39.54 147.338 39.82 146.108 39.82ZM159.443 31.65V33.87H158.063V34.94H159.443V37.13H160.763V31.65H159.443ZM157.973 36.88L158.613 35.85C157.213 35.39 156.563 34.3 156.533 33.26H158.323V32.2H153.373V33.26H155.183C155.133 34.41 154.483 35.58 153.013 36.09L153.683 37.13C154.763 36.77 155.483 36.02 155.883 35.09C156.283 35.9 156.973 36.55 157.973 36.88ZM157.653 37.33C155.693 37.33 154.493 37.98 154.493 39.1C154.493 40.22 155.693 40.87 157.653 40.87C159.603 40.87 160.803 40.22 160.803 39.1C160.803 37.98 159.603 37.33 157.653 37.33ZM157.653 39.87C156.423 39.87 155.813 39.61 155.813 39.1C155.813 38.59 156.423 38.33 157.653 38.33C158.873 38.33 159.483 38.59 159.483 39.1C159.483 39.61 158.873 39.87 157.653 39.87ZM170.602 39.79V38.72H167.082V37.03H169.692V32.22H168.392V33.65H164.452V32.22H163.142V37.03H165.762V38.72H162.262V39.79H170.602ZM168.392 35.98H164.452V34.69H168.392V35.98ZM181.377 36.6V31.65H180.047V36.6H181.377ZM176.367 32.03C174.937 32.03 173.857 32.94 173.857 34.2C173.857 35.48 174.937 36.38 176.367 36.38C177.797 36.38 178.867 35.48 178.867 34.2C178.867 32.94 177.797 32.03 176.367 32.03ZM176.367 33.12C177.087 33.12 177.577 33.52 177.577 34.2C177.577 34.89 177.087 35.29 176.367 35.29C175.647 35.29 175.147 34.89 175.147 34.2C175.147 33.52 175.647 33.12 176.367 33.12ZM176.567 37.86V37H175.257V40.75H181.377V37H180.067V37.86H176.567ZM180.067 39.71H176.567V38.87H180.067V39.71ZM190.626 37.33V31.65L189.306 31.66V32.92H187.826V33.98H189.306V34.89H187.826V35.94H189.306V37.33H190.626ZM187.756 36.87L187.626 35.82C186.716 35.98 185.896 36.04 184.586 36.04V35.08H187.296V32.17H183.266V33.23H185.996V34.1H183.276V37.1H183.986C185.736 37.1 186.696 37.08 187.756 36.87ZM190.626 37.74H184.326V38.79H189.306V40.87H190.626V37.74Z" fill="#030C37"/>
<circle cx="20" cy="10" r="10" fill="#030C37"/>
<path d="M21.1015 12.89V6.52H19.9215L17.7615 8.38L18.5515 9.28L19.7715 8.17L19.7315 8.82V12.89H18.2715V14H22.3915V12.89H21.1015Z" fill="#68F99E"/>
<circle cx="151" cy="10" r="10" fill="#030C37"/>
<path d="M151.161 6.4C151.508 6.4 151.825 6.45333 152.111 6.56C152.405 6.66667 152.655 6.81667 152.861 7.01C153.068 7.19667 153.228 7.42333 153.341 7.69C153.461 7.95667 153.521 8.25 153.521 8.57C153.515 8.83 153.465 9.08333 153.371 9.33C153.285 9.57 153.171 9.8 153.031 10.02C152.891 10.24 152.731 10.4533 152.551 10.66C152.378 10.8667 152.198 11.0667 152.011 11.26L150.461 12.82C150.595 12.7867 150.721 12.7667 150.841 12.76C150.968 12.7467 151.088 12.74 151.201 12.74H153.601V14H148.391V13.2L150.901 10.73C151.281 10.35 151.581 9.99667 151.801 9.67C152.021 9.34333 152.131 8.98667 152.131 8.6C152.131 8.25333 152.035 7.99333 151.841 7.82C151.655 7.64 151.398 7.55 151.071 7.55C150.791 7.55 150.555 7.63333 150.361 7.8C150.168 7.96 150.031 8.15 149.951 8.37C149.925 8.44333 149.905 8.52 149.891 8.6C149.885 8.68 149.878 8.77 149.871 8.87L148.561 8.65C148.681 7.88333 148.971 7.31667 149.431 6.95C149.898 6.58333 150.475 6.4 151.161 6.4Z" fill="#68F99E"/>
<circle cx="282" cy="10" r="10" fill="#030C37"/>
<path d="M282.211 6.4C282.565 6.40667 282.881 6.46333 283.161 6.57C283.448 6.67667 283.691 6.82 283.891 7C284.098 7.18 284.255 7.39 284.361 7.63C284.468 7.87 284.518 8.13 284.511 8.41C284.511 8.83667 284.405 9.18333 284.191 9.45C283.978 9.71 283.711 9.91667 283.391 10.07C283.831 10.2367 284.148 10.4667 284.341 10.76C284.541 11.0467 284.641 11.41 284.641 11.85C284.635 12.23 284.558 12.5667 284.411 12.86C284.265 13.1533 284.071 13.4 283.831 13.6C283.591 13.7933 283.311 13.94 282.991 14.04C282.678 14.14 282.345 14.19 281.991 14.19C281.611 14.19 281.278 14.1433 280.991 14.05C280.705 13.9567 280.451 13.8233 280.231 13.65C280.018 13.47 279.838 13.2533 279.691 13C279.545 12.74 279.421 12.4467 279.321 12.12L280.541 11.64C280.581 11.8 280.645 11.96 280.731 12.12C280.818 12.28 280.925 12.4267 281.051 12.56C281.178 12.6867 281.318 12.79 281.471 12.87C281.625 12.95 281.791 12.99 281.971 12.99C282.191 12.99 282.381 12.96 282.541 12.9C282.708 12.8333 282.845 12.75 282.951 12.65C283.065 12.5433 283.148 12.4233 283.201 12.29C283.255 12.1567 283.281 12.02 283.281 11.88C283.281 11.7067 283.261 11.5467 283.221 11.4C283.188 11.2533 283.111 11.13 282.991 11.03C282.871 10.9233 282.695 10.8433 282.461 10.79C282.235 10.73 281.925 10.7 281.531 10.7V9.7C281.865 9.69333 282.135 9.66333 282.341 9.61C282.555 9.55667 282.721 9.48333 282.841 9.39C282.961 9.29 283.045 9.17667 283.091 9.05C283.138 8.91667 283.161 8.77 283.161 8.61C283.168 8.26333 283.078 8.00667 282.891 7.84C282.711 7.66667 282.458 7.58 282.131 7.58C281.918 7.58 281.738 7.61333 281.591 7.68C281.445 7.74667 281.321 7.83667 281.221 7.95C281.128 8.06333 281.051 8.2 280.991 8.36C280.938 8.51333 280.895 8.68 280.861 8.86C280.648 8.82667 280.431 8.79 280.211 8.75C279.998 8.70333 279.781 8.66333 279.561 8.63C279.708 7.86333 280.008 7.3 280.461 6.94C280.921 6.58 281.505 6.4 282.211 6.4Z" fill="#68F99E"/>
</svg>
