<svg width="16" height="16" viewBox="0 0 16 16" fill="none" xmlns="http://www.w3.org/2000/svg">
<g clip-path="url(#clip0_452_11636)">
<path d="M1.56671 10.6867C2.43198 10.6867 3.13341 10.0066 3.13341 9.16767C3.13341 8.32876 2.43198 7.64868 1.56671 7.64868C0.701439 7.64868 0 8.32876 0 9.16767C0 10.0066 0.701439 10.6867 1.56671 10.6867Z" fill="#7B7B7B"/>
<path d="M0.979187 11.038V14.9399C0.979187 15.0884 1.04005 15.2309 1.1484 15.3359C1.25674 15.441 1.40369 15.5 1.55691 15.5C1.71013 15.5 1.85708 15.441 1.96542 15.3359C2.07377 15.2309 2.13463 15.0884 2.13463 14.9399V11.038C1.94678 11.091 1.75252 11.1197 1.55691 11.1234C1.3613 11.1197 1.16704 11.091 0.979187 11.038Z" fill="#7B7B7B"/>
<path d="M2.14443 7.29745V1.06011C2.14443 0.910299 2.08304 0.766621 1.97378 0.660687C1.86452 0.554753 1.71633 0.495239 1.56181 0.495239C1.40729 0.495239 1.25909 0.554753 1.14983 0.660687C1.04057 0.766621 0.979187 0.910299 0.979187 1.06011V7.29745C1.16546 7.23673 1.3604 7.20469 1.55691 7.20252C1.75671 7.20369 1.95503 7.23574 2.14443 7.29745Z" fill="#7B7B7B"/>
<path d="M6.95227 7.66772V14.9399C6.95227 15.0884 7.01314 15.2309 7.12148 15.3359C7.22983 15.441 7.37677 15.5 7.52999 15.5C7.68322 15.5 7.83016 15.441 7.93851 15.3359C8.04685 15.2309 8.10772 15.0884 8.10772 14.9399V7.66772C7.73364 7.79434 7.32635 7.79434 6.95227 7.66772Z" fill="#7B7B7B"/>
<path d="M8.10772 3.9272V1.0791C8.109 1.00554 8.09533 0.932461 8.06749 0.864026C8.03964 0.795592 7.99817 0.733144 7.94543 0.68025C7.89269 0.627356 7.82973 0.585051 7.76013 0.55575C7.69053 0.526449 7.61565 0.510727 7.53979 0.50948C7.46392 0.508233 7.38854 0.521487 7.31796 0.548484C7.24737 0.575481 7.18296 0.615693 7.12841 0.666824C7.07385 0.717955 7.03022 0.779004 6.99999 0.846484C6.96977 0.913965 6.95356 0.986556 6.95227 1.06011V3.90821C7.14013 3.85521 7.33438 3.82648 7.52999 3.82277C7.72649 3.83264 7.92076 3.86775 8.10772 3.9272Z" fill="#7B7B7B"/>
<path d="M7.52996 7.31642C8.39523 7.31642 9.09667 6.63634 9.09667 5.79743C9.09667 4.95852 8.39523 4.27844 7.52996 4.27844C6.6647 4.27844 5.96326 4.95852 5.96326 5.79743C5.96326 6.63634 6.6647 7.31642 7.52996 7.31642Z" fill="#7B7B7B"/>
<path d="M13.8556 11.8923V14.9778C13.8556 15.1263 13.9165 15.2688 14.0248 15.3738C14.1331 15.4789 14.2801 15.5379 14.4333 15.5379C14.5865 15.5379 14.7335 15.4789 14.8418 15.3738C14.9502 15.2688 15.011 15.1263 15.011 14.9778V11.8923C14.637 12.019 14.2297 12.019 13.8556 11.8923Z" fill="#7B7B7B"/>
<path d="M15.011 8.09494V1.06013C15.011 0.911572 14.9502 0.769101 14.8418 0.664057C14.7335 0.559013 14.5865 0.5 14.4333 0.5C14.2801 0.5 14.1331 0.559013 14.0248 0.664057C13.9165 0.769101 13.8556 0.911572 13.8556 1.06013V8.09494C14.2297 7.96832 14.637 7.96832 15.011 8.09494Z" fill="#7B7B7B"/>
<path d="M14.4333 11.5032C15.2986 11.5032 16 10.8231 16 9.9842C16 9.14528 15.2986 8.46521 14.4333 8.46521C13.568 8.46521 12.8666 9.14528 12.8666 9.9842C12.8666 10.8231 13.568 11.5032 14.4333 11.5032Z" fill="#7B7B7B"/>
</g>
<defs>
<clipPath id="clip0_452_11636">
<rect width="16" height="15" fill="white" transform="translate(0 0.5)"/>
</clipPath>
</defs>
</svg>
