<svg width="307" height="248" viewBox="0 0 307 248" fill="none" xmlns="http://www.w3.org/2000/svg">
<g filter="url(#filter0_d_2109_29472)">
<rect x="6" y="6" width="295" height="236" rx="3" fill="white"/>
<rect x="6.5" y="6.5" width="294" height="235" rx="2.5" stroke="#EFEFEF"/>
</g>
<path d="M45 192L45 57" stroke="#DDDDDD"/>
<path d="M72.992 198.224C75.728 198.224 77.344 196.576 77.344 194.64C77.344 192.912 76.432 192.016 74.96 191.424L73.408 190.768C72.4 190.384 71.552 190.016 71.552 189.216C71.552 188.432 72.224 187.968 73.264 187.968C74.24 187.968 75.024 188.32 75.776 188.944L76.976 187.456C76.016 186.48 74.672 185.936 73.264 185.936C70.88 185.936 69.168 187.424 69.168 189.36C69.168 191.088 70.368 192.032 71.568 192.544L73.152 193.216C74.224 193.68 74.928 193.92 74.928 194.816C74.928 195.648 74.272 196.176 73.04 196.176C72 196.176 70.88 195.648 70.032 194.864L68.672 196.496C69.824 197.6 71.392 198.224 72.992 198.224ZM82.0284 198.224C82.8124 198.224 83.4204 198.064 83.9164 197.888L83.5324 196.176C83.2924 196.288 82.9564 196.368 82.6524 196.368C81.8364 196.368 81.4364 195.872 81.4364 194.864V190.896H83.6444V189.04H81.4364V186.64H79.4684L79.1964 189.04L77.8204 189.152V190.896H79.0844V194.864C79.0844 196.88 79.9004 198.224 82.0284 198.224ZM89.0583 198.224C90.2103 198.224 91.2983 197.856 92.1943 197.232L91.3943 195.792C90.7543 196.192 90.1303 196.416 89.3783 196.416C88.0343 196.416 87.0903 195.648 86.8983 194.176H92.4183C92.4823 193.968 92.5303 193.536 92.5303 193.104C92.5303 190.624 91.2503 188.816 88.7863 188.816C86.6583 188.816 84.6103 190.64 84.6103 193.536C84.6103 196.48 86.5623 198.224 89.0583 198.224ZM90.5143 192.624H86.8663C87.0423 191.328 87.8743 190.64 88.8183 190.64C89.9703 190.64 90.5143 191.408 90.5143 192.624ZM96.3871 189.04H94.4671V201.44H96.8031V198.72L96.7391 197.248C97.4271 197.872 98.1791 198.224 98.9631 198.224C100.931 198.224 102.771 196.448 102.771 193.376C102.771 190.624 101.459 188.816 99.2511 188.816C98.2911 188.816 97.3631 189.328 96.6111 189.968H96.5471L96.3871 189.04ZM98.4351 196.288C97.9391 196.288 97.3791 196.112 96.8031 195.616V191.68C97.4271 191.056 97.9551 190.752 98.5791 190.752C99.8111 190.752 100.355 191.68 100.355 193.408C100.355 195.392 99.5231 196.288 98.4351 196.288ZM112.229 185.84C109.973 185.84 108.453 186.96 107.989 189.408C108.693 189.52 109.381 189.664 110.069 189.776C110.277 188.624 110.741 187.728 112.101 187.728C113.141 187.728 113.765 188.272 113.749 189.376C113.749 190.4 113.253 191.072 111.141 191.12V192.72C113.637 192.72 113.941 193.488 113.941 194.608C113.941 195.504 113.253 196.384 111.845 196.384C110.709 196.384 109.813 195.248 109.557 194.224L107.605 194.992C108.245 197.088 109.445 198.304 111.877 198.304C114.117 198.304 116.069 197.008 116.117 194.56C116.117 193.152 115.525 192.24 114.117 191.712C115.125 191.216 115.909 190.416 115.909 189.056C115.957 187.28 114.469 185.888 112.229 185.84ZM117.696 198.224H120.032V195.952H117.696V198.224ZM137.584 199.408V184.624H135.472V199.408H137.584ZM129.664 185.664C127.44 185.664 125.792 187.68 125.792 190.912C125.792 194.16 127.44 196.192 129.664 196.192C131.888 196.192 133.536 194.16 133.536 190.912C133.536 187.68 131.888 185.664 129.664 185.664ZM129.664 187.568C130.752 187.568 131.504 188.72 131.504 190.912C131.504 193.104 130.752 194.272 129.664 194.272C128.576 194.272 127.824 193.104 127.824 190.912C127.824 188.72 128.576 187.568 129.664 187.568ZM152.302 199.408V184.64H150.19V199.408H152.302ZM147.902 195.872V185.968H140.814V195.872H147.902ZM142.894 194.208V187.632H145.822V194.208H142.894ZM167.021 199.376V184.64H164.909V199.376H167.021ZM160.509 188.608V187.792H163.549V186.048H155.293V187.792H158.365V188.608C158.365 191.12 157.181 193.824 154.701 194.928L155.901 196.608C157.629 195.824 158.813 194.224 159.469 192.288C160.125 194.096 161.277 195.488 163.005 196.24L164.157 194.576C161.693 193.552 160.509 191.008 160.509 188.608ZM185.477 192.56V184.64H183.365V187.888H181.013C180.581 186.304 179.109 185.248 177.221 185.248C175.013 185.248 173.349 186.72 173.349 188.768C173.349 190.816 175.013 192.288 177.221 192.288C179.109 192.288 180.645 191.184 181.029 189.6H183.365V192.56H185.477ZM177.221 190.528C176.133 190.528 175.365 189.872 175.365 188.768C175.365 187.664 176.133 187.008 177.221 187.008C178.309 187.008 179.093 187.664 179.093 188.768C179.093 189.872 178.309 190.528 177.221 190.528ZM185.477 193.2H183.381V194.608H177.813V193.2H175.717V199.2H185.477V193.2ZM177.813 196.208H183.381V197.536H177.813V196.208ZM201.22 197.76V196.032H195.588V193.84H200.052V192.144H191.508V190.496H199.716V185.584H189.396V187.264H197.636V188.848H189.412V193.84H193.476V196.032H187.876V197.76H201.22ZM204.146 193.12H214.514V191.44H206.258V187.568H214.402V185.856H204.146V193.12ZM215.938 197.616V195.888H202.594V197.616H215.938Z" fill="black"/>
<circle cx="221.5" cy="184.5" r="2.5" fill="#FF2D55"/>
<circle cx="45" cy="192" r="6.5" fill="#030C37" stroke="#030C37"/>
<circle r="3.5" transform="matrix(1 0 0 -1 45 192)" fill="#68F99E" stroke="#68F99E"/>
<path d="M72.992 130.224C75.728 130.224 77.344 128.576 77.344 126.64C77.344 124.912 76.432 124.016 74.96 123.424L73.408 122.768C72.4 122.384 71.552 122.016 71.552 121.216C71.552 120.432 72.224 119.968 73.264 119.968C74.24 119.968 75.024 120.32 75.776 120.944L76.976 119.456C76.016 118.48 74.672 117.936 73.264 117.936C70.88 117.936 69.168 119.424 69.168 121.36C69.168 123.088 70.368 124.032 71.568 124.544L73.152 125.216C74.224 125.68 74.928 125.92 74.928 126.816C74.928 127.648 74.272 128.176 73.04 128.176C72 128.176 70.88 127.648 70.032 126.864L68.672 128.496C69.824 129.6 71.392 130.224 72.992 130.224ZM82.0284 130.224C82.8124 130.224 83.4204 130.064 83.9164 129.888L83.5324 128.176C83.2924 128.288 82.9564 128.368 82.6524 128.368C81.8364 128.368 81.4364 127.872 81.4364 126.864V122.896H83.6444V121.04H81.4364V118.64H79.4684L79.1964 121.04L77.8204 121.152V122.896H79.0844V126.864C79.0844 128.88 79.9004 130.224 82.0284 130.224ZM89.0583 130.224C90.2103 130.224 91.2983 129.856 92.1943 129.232L91.3943 127.792C90.7543 128.192 90.1303 128.416 89.3783 128.416C88.0343 128.416 87.0903 127.648 86.8983 126.176H92.4183C92.4823 125.968 92.5303 125.536 92.5303 125.104C92.5303 122.624 91.2503 120.816 88.7863 120.816C86.6583 120.816 84.6103 122.64 84.6103 125.536C84.6103 128.48 86.5623 130.224 89.0583 130.224ZM90.5143 124.624H86.8663C87.0423 123.328 87.8743 122.64 88.8183 122.64C89.9703 122.64 90.5143 123.408 90.5143 124.624ZM96.3871 121.04H94.4671V133.44H96.8031V130.72L96.7391 129.248C97.4271 129.872 98.1791 130.224 98.9631 130.224C100.931 130.224 102.771 128.448 102.771 125.376C102.771 122.624 101.459 120.816 99.2511 120.816C98.2911 120.816 97.3631 121.328 96.6111 121.968H96.5471L96.3871 121.04ZM98.4351 128.288C97.9391 128.288 97.3791 128.112 96.8031 127.616V123.68C97.4271 123.056 97.9551 122.752 98.5791 122.752C99.8111 122.752 100.355 123.68 100.355 125.408C100.355 127.392 99.5231 128.288 98.4351 128.288ZM112.149 117.84C109.957 117.84 108.373 118.992 107.989 121.44L110.085 121.792C110.101 121.472 110.133 121.232 110.213 120.992C110.469 120.288 111.109 119.68 112.005 119.68C113.045 119.68 113.701 120.256 113.701 121.36C113.701 122.592 112.949 123.552 111.733 124.768L107.717 128.72V130H116.053V127.984H112.213C111.845 127.984 111.461 128 111.029 128.112L113.509 125.616C114.693 124.384 115.877 122.992 115.925 121.312C115.925 119.264 114.373 117.84 112.149 117.84ZM117.696 130.224H120.032V127.952H117.696V130.224ZM126.048 123.04L126.784 124.704C129.36 124.4 131.072 123.408 132.032 122.064C132.992 123.408 134.736 124.4 137.248 124.704L138 123.04C134.96 122.704 133.376 121.248 133.12 120H137.488V118.32H133.072V116.672H130.96V118.32H126.576V120H130.928C130.672 121.28 129.12 122.704 126.048 123.04ZM133.072 127.168H138.704V125.456H125.392V127.168H130.96V131.408H133.072V127.168ZM150.302 116.64V120.944H147.95V122.64H150.302V127.552H152.414V116.64H150.302ZM147.934 125.824L148.942 124.176C146.558 123.456 145.502 121.76 145.502 120.096V120.032H148.414V118.384H145.502V116.752H143.39V118.384H140.51V120.032H143.39V120.096C143.39 121.888 142.366 123.648 139.998 124.416L141.022 126.064C142.686 125.536 143.838 124.496 144.478 123.088C145.166 124.368 146.27 125.328 147.934 125.824ZM152.75 131.12V129.44H144.814V126.64H142.702V131.12H152.75ZM168.342 121.424L159.494 121.712L159.766 123.488L168.214 123.04C168.134 123.936 167.958 124.896 167.718 125.984L169.798 126.24C170.486 122.992 170.47 120.944 170.47 119.168V117.872H159.942V119.552H168.39C168.39 120.128 168.39 120.736 168.342 121.424ZM171.766 129.68V127.968H165.27V124.448H163.158V127.968H158.438V129.68H171.766ZM185.141 125.344L186.037 123.584C182.709 123.024 180.885 120.688 180.885 118.56V117.504H178.629V118.56C178.629 120.656 176.805 123.024 173.477 123.584L174.373 125.344C176.949 124.848 178.789 123.408 179.749 121.536C180.709 123.408 182.565 124.832 185.141 125.344ZM186.501 129.584V127.872H173.157V129.584H186.501ZM201.709 116.64V120.192H199.501V121.904H201.709V125.408H203.821V116.64H201.709ZM199.357 125.008L200.381 123.36C198.141 122.624 197.101 120.88 197.053 119.216H199.917V117.52H191.997V119.216H194.893C194.812 121.056 193.773 122.928 191.421 123.744L192.493 125.408C194.221 124.832 195.373 123.632 196.013 122.144C196.653 123.44 197.757 124.48 199.357 125.008ZM198.845 125.728C195.709 125.728 193.789 126.768 193.789 128.56C193.789 130.352 195.709 131.392 198.845 131.392C201.965 131.392 203.885 130.352 203.885 128.56C203.885 126.768 201.965 125.728 198.845 125.728ZM198.845 129.792C196.877 129.792 195.901 129.376 195.901 128.56C195.901 127.744 196.877 127.328 198.845 127.328C200.797 127.328 201.773 127.744 201.773 128.56C201.773 129.376 200.797 129.792 198.845 129.792ZM219.563 129.664V127.952H213.931V125.248H218.107V117.552H216.027V119.84H209.723V117.552H207.627V125.248H211.819V127.952H206.219V129.664H219.563ZM216.027 123.568H209.723V121.504H216.027V123.568ZM236.803 124.56V116.64H234.675V124.56H236.803ZM228.787 117.248C226.499 117.248 224.771 118.704 224.771 120.72C224.771 122.768 226.499 124.208 228.787 124.208C231.075 124.208 232.787 122.768 232.787 120.72C232.787 118.704 231.075 117.248 228.787 117.248ZM228.787 118.992C229.939 118.992 230.723 119.632 230.723 120.72C230.723 121.824 229.939 122.464 228.787 122.464C227.635 122.464 226.835 121.824 226.835 120.72C226.835 119.632 227.635 118.992 228.787 118.992ZM229.107 126.576V125.2H227.011V131.2H236.803V125.2H234.707V126.576H229.107ZM234.707 129.536H229.107V128.192H234.707V129.536ZM251.602 125.728V116.64L249.49 116.656V118.672H247.122V120.368H249.49V121.824H247.122V123.504H249.49V125.728H251.602ZM247.01 124.992L246.802 123.312C245.346 123.568 244.034 123.664 241.938 123.664V122.128H246.274V117.472H239.826V119.168H244.194V120.56H239.842V125.36H240.978C243.778 125.36 245.314 125.328 247.01 124.992ZM251.602 126.384H241.522V128.064H249.49V131.392H251.602V126.384Z" fill="#B8B8B8"/>
<circle cx="45" cy="124" r="6.5" fill="white" stroke="#DDDDDD"/>
<circle r="3.5" transform="matrix(1 0 0 -1 45 124)" fill="#DDDDDD" stroke="#DDDDDD"/>
<circle cx="258.5" cy="116.5" r="2.5" fill="#FF2D55"/>
<circle cx="45" cy="56" r="6.5" fill="white" stroke="#DDDDDD"/>
<circle r="3.5" transform="matrix(1 0 0 -1 45 56)" fill="#DDDDDD" stroke="#DDDDDD"/>
<path d="M72.992 62.224C75.728 62.224 77.344 60.576 77.344 58.64C77.344 56.912 76.432 56.016 74.96 55.424L73.408 54.768C72.4 54.384 71.552 54.016 71.552 53.216C71.552 52.432 72.224 51.968 73.264 51.968C74.24 51.968 75.024 52.32 75.776 52.944L76.976 51.456C76.016 50.48 74.672 49.936 73.264 49.936C70.88 49.936 69.168 51.424 69.168 53.36C69.168 55.088 70.368 56.032 71.568 56.544L73.152 57.216C74.224 57.68 74.928 57.92 74.928 58.816C74.928 59.648 74.272 60.176 73.04 60.176C72 60.176 70.88 59.648 70.032 58.864L68.672 60.496C69.824 61.6 71.392 62.224 72.992 62.224ZM82.0284 62.224C82.8124 62.224 83.4204 62.064 83.9164 61.888L83.5324 60.176C83.2924 60.288 82.9564 60.368 82.6524 60.368C81.8364 60.368 81.4364 59.872 81.4364 58.864V54.896H83.6444V53.04H81.4364V50.64H79.4684L79.1964 53.04L77.8204 53.152V54.896H79.0844V58.864C79.0844 60.88 79.9004 62.224 82.0284 62.224ZM89.0583 62.224C90.2103 62.224 91.2983 61.856 92.1943 61.232L91.3943 59.792C90.7543 60.192 90.1303 60.416 89.3783 60.416C88.0343 60.416 87.0903 59.648 86.8983 58.176H92.4183C92.4823 57.968 92.5303 57.536 92.5303 57.104C92.5303 54.624 91.2503 52.816 88.7863 52.816C86.6583 52.816 84.6103 54.64 84.6103 57.536C84.6103 60.48 86.5623 62.224 89.0583 62.224ZM90.5143 56.624H86.8663C87.0423 55.328 87.8743 54.64 88.8183 54.64C89.9703 54.64 90.5143 55.408 90.5143 56.624ZM96.3871 53.04H94.4671V65.44H96.8031V62.72L96.7391 61.248C97.4271 61.872 98.1791 62.224 98.9631 62.224C100.931 62.224 102.771 60.448 102.771 57.376C102.771 54.624 101.459 52.816 99.2511 52.816C98.2911 52.816 97.3631 53.328 96.6111 53.968H96.5471L96.3871 53.04ZM98.4351 60.288C97.9391 60.288 97.3791 60.112 96.8031 59.616V55.68C97.4271 55.056 97.9551 54.752 98.5791 54.752C99.8111 54.752 100.355 55.68 100.355 57.408C100.355 59.392 99.5231 60.288 98.4351 60.288ZM113.653 60.224V50.032H111.765L108.309 53.008L109.573 54.448L111.525 52.672L111.461 53.712V60.224H109.125V62H115.717V60.224H113.653ZM117.696 62.224H120.032V59.952H117.696V62.224ZM135.28 53.424L126.432 53.712L126.704 55.488L135.152 55.04C135.072 55.936 134.896 56.896 134.656 57.984L136.736 58.24C137.424 54.992 137.408 52.944 137.408 51.168V49.872H126.88V51.552H135.328C135.328 52.128 135.328 52.736 135.28 53.424ZM138.704 61.68V59.968H132.208V56.448H130.096V59.968H125.376V61.68H138.704ZM152.078 57.344L152.974 55.584C149.646 55.024 147.822 52.688 147.822 50.56V49.504H145.566V50.56C145.566 52.656 143.742 55.024 140.414 55.584L141.31 57.344C143.886 56.848 145.726 55.408 146.686 53.536C147.646 55.408 149.502 56.832 152.078 57.344ZM153.438 61.584V59.872H140.094V61.584H153.438ZM170.646 63.376V48.64H168.534V63.376H170.646ZM164.134 52.608V51.792H167.174V50.048H158.918V51.792H161.99V52.608C161.99 55.12 160.806 57.824 158.326 58.928L159.526 60.608C161.254 59.824 162.438 58.224 163.094 56.288C163.75 58.096 164.902 59.488 166.63 60.24L167.782 58.576C165.318 57.552 164.134 55.008 164.134 52.608ZM183.365 48.64V52.192H181.157V53.904H183.365V57.408H185.477V48.64H183.365ZM181.013 57.008L182.037 55.36C179.797 54.624 178.757 52.88 178.709 51.216H181.573V49.52H173.653V51.216H176.549C176.469 53.056 175.429 54.928 173.077 55.744L174.149 57.408C175.877 56.832 177.029 55.632 177.669 54.144C178.309 55.44 179.413 56.48 181.013 57.008ZM180.501 57.728C177.365 57.728 175.445 58.768 175.445 60.56C175.445 62.352 177.365 63.392 180.501 63.392C183.621 63.392 185.541 62.352 185.541 60.56C185.541 58.768 183.621 57.728 180.501 57.728ZM180.501 61.792C178.533 61.792 177.557 61.376 177.557 60.56C177.557 59.744 178.533 59.328 180.501 59.328C182.453 59.328 183.429 59.744 183.429 60.56C183.429 61.376 182.453 61.792 180.501 61.792Z" fill="#B8B8B8"/>
<circle cx="192.5" cy="48.5" r="2.5" fill="#FF2D55"/>
<defs>
<filter id="filter0_d_2109_29472" x="0" y="0" width="307" height="248" filterUnits="userSpaceOnUse" color-interpolation-filters="sRGB">
<feFlood flood-opacity="0" result="BackgroundImageFix"/>
<feColorMatrix in="SourceAlpha" type="matrix" values="0 0 0 0 0 0 0 0 0 0 0 0 0 0 0 0 0 0 127 0" result="hardAlpha"/>
<feOffset/>
<feGaussianBlur stdDeviation="3"/>
<feComposite in2="hardAlpha" operator="out"/>
<feColorMatrix type="matrix" values="0 0 0 0 0.554167 0 0 0 0 0.554167 0 0 0 0 0.554167 0 0 0 0.25 0"/>
<feBlend mode="normal" in2="BackgroundImageFix" result="effect1_dropShadow_2109_29472"/>
<feBlend mode="normal" in="SourceGraphic" in2="effect1_dropShadow_2109_29472" result="shape"/>
</filter>
</defs>
</svg>
