<svg width="19" height="25" viewBox="0 0 19 25" fill="none" xmlns="http://www.w3.org/2000/svg">
<path fill-rule="evenodd" clip-rule="evenodd" d="M1.52896 1.14548C2.19888 0.424027 3.1275 0 4.11682 0H14.8832C15.8725 0 16.8011 0.424027 17.471 1.14548C18.1384 1.86414 18.5 2.82184 18.5 3.80439V23.3699C18.4999 23.6484 18.4299 23.9268 18.2916 24.1754C18.1531 24.4242 17.948 24.6395 17.689 24.7889C17.429 24.9388 17.1285 25.0138 16.8211 24.9979C16.5325 24.9831 16.2594 24.8893 16.027 24.7344L9.5 20.9461L2.97301 24.7344C2.74062 24.8893 2.46745 24.9831 2.1789 24.9979C1.87153 25.0138 1.571 24.9388 1.31099 24.7889C1.05196 24.6395 0.84691 24.4242 0.708448 24.1754C0.570156 23.9269 0.500134 23.6489 0.5 23.3703L0.5 3.80439C0.5 2.82184 0.861622 1.86414 1.52896 1.14548ZM16.7477 23.6805L16.6386 23.8263ZM2.26832 23.7019L2.36139 23.8264L2.35409 23.8319C2.28265 23.8811 2.20215 23.9083 2.12056 23.9125C2.03616 23.9168 1.95121 23.8966 1.87443 23.8523C1.7975 23.8079 1.73084 23.7406 1.68344 23.6554" fill="white"/>
</svg>
