<svg width="14" height="19" viewBox="0 0 14 19" fill="none" xmlns="http://www.w3.org/2000/svg">
<path d="M1 3.06015C1 2.51376 1.2131 1.98976 1.59242 1.6034C1.97174 1.21705 2.48621 1 3.02266 1L11.1133 1C11.6497 1 12.1642 1.21705 12.5435 1.6034C12.9228 1.98976 13.1359 2.51376 13.1359 3.06015V16.9661C13.1359 17.0593 13.111 17.1507 13.064 17.2306C13.017 17.3105 12.9496 17.376 12.8689 17.4199C12.7883 17.4639 12.6975 17.4848 12.6061 17.4803C12.5147 17.4759 12.4263 17.4463 12.3501 17.3946L7.06797 14.495L1.7858 17.3946C1.70965 17.4463 1.62119 17.4759 1.52983 17.4803C1.43846 17.4848 1.34763 17.4639 1.26699 17.4199C1.18635 17.376 1.11894 17.3105 1.07192 17.2306C1.0249 17.1507 1.00005 17.0593 1 16.9661V3.06015Z" stroke="#343434" stroke-width="1.69614"/>
</svg>
