<svg width="34" height="42" viewBox="0 0 34 42" fill="none" xmlns="http://www.w3.org/2000/svg">
<path d="M33.2115 0H17.021H0.830566V41.0159H1.35011L17.021 32.6263L32.692 41.0159H33.2115V0Z" fill="#7B7B7B" fill-opacity="0.5"/>
<path fill-rule="evenodd" clip-rule="evenodd" d="M1.61905 0V39.9424L16.6179 31.9126C16.8566 31.7848 17.1434 31.7848 17.3821 31.9126L32.381 39.9424V0H34V41.0159C34 41.463 33.6376 41.8254 33.1905 41.8254H32.6709C32.5376 41.8254 32.4064 41.7925 32.2889 41.7296L17 33.5445L1.71114 41.7296C1.59362 41.7925 1.46237 41.8254 1.32906 41.8254H0.809524C0.362436 41.8254 0 41.463 0 41.0159V0H1.61905Z" fill="white" fill-opacity="0.7"/>
</svg>
