<svg width="13" height="12" viewBox="0 0 13 12" fill="none" xmlns="http://www.w3.org/2000/svg">
<path d="M5.87605 1.22694C6.13553 0.716686 6.86446 0.716686 7.12395 1.22694L8.34343 3.62493C8.44689 3.82838 8.64306 3.96862 8.86905 4.00068L11.5621 4.38275C12.1425 4.4651 12.3706 5.18174 11.9447 5.58448L10.024 7.40022C9.85297 7.56195 9.77466 7.79885 9.81562 8.03069L10.2724 10.6155C10.3729 11.1846 9.77953 11.6236 9.26479 11.3608L6.81825 10.112C6.61835 10.0099 6.38165 10.0099 6.18175 10.112L3.73521 11.3608C3.22047 11.6236 2.62707 11.1846 2.72763 10.6155L3.18438 8.03069C3.22534 7.79885 3.14703 7.56195 2.97595 7.40022L1.05534 5.58448C0.629349 5.18174 0.857491 4.4651 1.43791 4.38275L4.13095 4.00068C4.35694 3.96862 4.55311 3.82838 4.65657 3.62493L5.87605 1.22694Z" fill="#FFE600"/>
</svg>
