<svg width="120" height="26" viewBox="0 0 120 26" fill="none" xmlns="http://www.w3.org/2000/svg">
<rect width="120" height="26" rx="3" fill="#BD6AFF"/>
<path d="M27.0275 6.436H28.4835V19.092H27.0275V12.302H24.8435V11.126H27.0275V6.436ZM23.9335 8.83V14.71C24.5029 14.6633 25.0582 14.6073 25.5995 14.542L25.6975 15.606C25.0535 15.7087 24.3955 15.7927 23.7235 15.858C23.0515 15.914 22.3842 15.9607 21.7215 15.998C21.0682 16.0353 20.4289 16.0587 19.8035 16.068C19.1782 16.0773 18.5902 16.082 18.0395 16.082L17.8995 14.892H18.6555C18.9075 14.892 19.1689 14.8873 19.4395 14.878V8.83H18.2495V7.668H25.2355V8.83H23.9335ZM20.8395 8.83V14.85C21.1102 14.8407 21.3902 14.8313 21.6795 14.822C21.9689 14.8127 22.2535 14.7987 22.5335 14.78V8.83H20.8395ZM33.6624 9.95V7.906H31.8704V6.8H41.2364V7.906H39.4584V9.95H41.1664V11.042H31.9404V9.95H33.6624ZM38.0164 9.95V7.906H35.1044V9.95H38.0164ZM30.8484 11.924H42.3004V13.072H30.8484V11.924ZM33.6624 16.936V17.888H41.2224V18.966H32.2344V15.942H39.4444V15.06H32.2064V13.996H40.8584V16.936H33.6624ZM54.9782 18H53.1442L50.8062 13.842H49.1402V18H47.5162V7.696H50.8902C51.4222 7.696 51.9122 7.74733 52.3602 7.85C52.8175 7.95267 53.2142 8.12067 53.5502 8.354C53.8862 8.58733 54.1475 8.89533 54.3342 9.278C54.5209 9.65133 54.6142 10.118 54.6142 10.678C54.6142 11.4993 54.4182 12.148 54.0262 12.624C53.6342 13.0907 53.1115 13.4267 52.4582 13.632L54.9782 18ZM49.1402 8.998V12.54H50.6942C51.4502 12.54 52.0242 12.386 52.4162 12.078C52.8082 11.77 53.0042 11.3033 53.0042 10.678C53.0042 10.0527 52.8082 9.61867 52.4162 9.376C52.0242 9.124 51.4502 8.998 50.6942 8.998H49.1402ZM60.47 18.182C59.9007 18.182 59.378 18.1027 58.902 17.944C58.4354 17.776 58.034 17.51 57.698 17.146C57.362 16.7727 57.1007 16.2967 56.914 15.718C56.7274 15.13 56.634 14.416 56.634 13.576V7.696H58.258V13.688C58.258 14.2667 58.314 14.7567 58.426 15.158C58.538 15.55 58.692 15.8673 58.888 16.11C59.084 16.3433 59.3174 16.5113 59.588 16.614C59.8587 16.7167 60.1527 16.768 60.47 16.768C60.7967 16.768 61.0954 16.7167 61.366 16.614C61.646 16.5113 61.884 16.3433 62.08 16.11C62.2854 15.8673 62.444 15.55 62.556 15.158C62.668 14.7567 62.724 14.2667 62.724 13.688V7.696H64.292V13.576C64.292 14.416 64.1987 15.13 64.012 15.718C63.8347 16.2967 63.578 16.7727 63.242 17.146C62.906 17.51 62.5047 17.776 62.038 17.944C61.5714 18.1027 61.0487 18.182 60.47 18.182ZM66.9576 18V7.696H68.6236L72.0396 13.744L73.1176 15.928H73.1876C73.1409 15.396 73.0943 14.8313 73.0476 14.234C73.0009 13.6367 72.9776 13.058 72.9776 12.498V7.696H74.5176V18H72.8516L69.4356 11.924L68.3576 9.768H68.2876C68.3343 10.3 68.3809 10.8553 68.4276 11.434C68.4743 12.0127 68.4976 12.582 68.4976 13.142V18H66.9576ZM77.2389 18V7.696H78.9049L82.3209 13.744L83.3989 15.928H83.4689C83.4222 15.396 83.3755 14.8313 83.3289 14.234C83.2822 13.6367 83.2589 13.058 83.2589 12.498V7.696H84.7989V18H83.1329L79.7169 11.924L78.6389 9.768H78.5689C78.6155 10.3 78.6622 10.8553 78.7089 11.434C78.7555 12.0127 78.7789 12.582 78.7789 13.142V18H77.2389ZM87.5201 18V7.696H93.6101V9.054H89.1441V11.924H92.9241V13.296H89.1441V16.628H93.7641V18H87.5201ZM103.377 18H101.543L99.2046 13.842H97.5386V18H95.9146V7.696H99.2886C99.8206 7.696 100.311 7.74733 100.759 7.85C101.216 7.95267 101.613 8.12067 101.949 8.354C102.285 8.58733 102.546 8.89533 102.733 9.278C102.919 9.65133 103.013 10.118 103.013 10.678C103.013 11.4993 102.817 12.148 102.425 12.624C102.033 13.0907 101.51 13.4267 100.857 13.632L103.377 18ZM97.5386 8.998V12.54H99.0926C99.8486 12.54 100.423 12.386 100.815 12.078C101.207 11.77 101.403 11.3033 101.403 10.678C101.403 10.0527 101.207 9.61867 100.815 9.376C100.423 9.124 99.8486 8.998 99.0926 8.998H97.5386Z" fill="white"/>
</svg>
