<svg width="120" height="26" viewBox="0 0 120 26" fill="none" xmlns="http://www.w3.org/2000/svg">
<rect width="120" height="26" rx="3" fill="#FF823B"/>
<path d="M22.4961 16.348H17.4701V13.94C19.7801 13.716 21.4041 12.442 21.4041 10.566C21.4041 8.494 19.4301 7.178 16.7561 7.178C14.0681 7.178 12.1081 8.494 12.1081 10.566C12.1081 12.456 13.7181 13.702 16.0281 13.926V16.348H11.0441V17.524H22.4961V16.348ZM13.5081 10.566C13.5081 9.18 14.8661 8.326 16.7561 8.326C18.6321 8.326 19.9901 9.18 19.9901 10.566C19.9901 11.952 18.6321 12.806 16.7561 12.806C14.8661 12.806 13.5081 11.952 13.5081 10.566ZM34.619 15.942V6.436H33.247V15.942H34.619ZM30.755 10.972V15.634H32.113V6.66H30.755V9.796H29.383V10.972H30.755ZM29.943 13.744L29.803 12.596C28.501 12.834 27.353 12.918 25.855 12.932V11.238H28.907V7.43H24.427V8.564H27.507V10.174H24.455V14.08H25.309C27.143 14.08 28.417 14.01 29.943 13.744ZM34.969 17.664H27.717V15.004H26.261V18.84H34.969V17.664ZM47.2039 6.436H45.7479V19.078H47.2039V6.436ZM41.4639 10.09V8.886H44.2779V7.696H37.1939V8.886H40.0079V10.09C40.0079 12.232 38.7059 14.64 36.7459 15.522L37.5719 16.67C39.0559 15.97 40.1899 14.444 40.7499 12.694C41.3519 14.332 42.4719 15.69 43.9419 16.348L44.7399 15.214C42.7659 14.36 41.4639 12.204 41.4639 10.09ZM59.0837 18H60.9177L58.3977 13.632C59.6997 13.226 60.5537 12.302 60.5537 10.678C60.5537 8.452 58.9577 7.696 56.8297 7.696H53.4557V18H55.0797V13.842H56.7457L59.0837 18ZM55.0797 12.54V8.998H56.6337C58.1457 8.998 58.9437 9.432 58.9437 10.678C58.9437 11.924 58.1457 12.54 56.6337 12.54H55.0797ZM66.4095 18.182C68.7055 18.182 70.2315 16.936 70.2315 13.576V7.696H68.6635V13.688C68.6635 16.012 67.7115 16.768 66.4095 16.768C65.1355 16.768 64.1975 16.012 64.1975 13.688V7.696H62.5735V13.576C62.5735 16.936 64.1275 18.182 66.4095 18.182ZM72.8971 7.696V18H74.4371V13.142C74.4371 12.022 74.3251 10.832 74.2271 9.768H74.2971L75.3751 11.924L78.7911 18H80.4571V7.696H78.9171V12.498C78.9171 13.618 79.0291 14.864 79.1271 15.928H79.0571L77.9791 13.744L74.5631 7.696H72.8971ZM83.1783 7.696V18H84.7183V13.142C84.7183 12.022 84.6063 10.832 84.5083 9.768H84.5783L85.6563 11.924L89.0723 18H90.7383V7.696H89.1983V12.498C89.1983 13.618 89.3103 14.864 89.4083 15.928H89.3383L88.2603 13.744L84.8443 7.696H83.1783ZM93.4596 7.696V18H99.7036V16.628H95.0836V13.296H98.8636V11.924H95.0836V9.054H99.5496V7.696H93.4596ZM107.482 18H109.316L106.796 13.632C108.098 13.226 108.952 12.302 108.952 10.678C108.952 8.452 107.356 7.696 105.228 7.696H101.854V18H103.478V13.842H105.144L107.482 18ZM103.478 12.54V8.998H105.032C106.544 8.998 107.342 9.432 107.342 10.678C107.342 11.924 106.544 12.54 105.032 12.54H103.478Z" fill="white"/>
</svg>
