<svg width="21" height="20" viewBox="0 0 21 20" fill="none" xmlns="http://www.w3.org/2000/svg">
<path d="M9.0887 2.34229C4.07339 2.34229 0 5.99016 0 10.4932C0.00886156 12.2808 0.649834 14.0076 1.80948 15.368C1.56574 16.4917 1.14435 17.9294 0.458566 18.7474C0.424357 18.7872 0.402371 18.8361 0.395251 18.8881C0.388131 18.9401 0.396179 18.9931 0.418428 19.0406C0.440677 19.0882 0.476182 19.1283 0.520676 19.1561C0.565171 19.184 0.616764 19.1984 0.669259 19.1977C2.28987 19.1569 3.87352 18.7048 5.27145 17.884C6.48185 18.3843 7.77897 18.6412 9.0887 18.64C14.1123 18.64 18.1774 14.9921 18.1774 10.4932C18.1774 5.99429 14.1247 2.34229 9.0887 2.34229ZM4.87072 11.7491C4.62559 11.7491 4.38597 11.6764 4.18216 11.5402C3.97835 11.404 3.8195 11.2105 3.72569 10.984C3.63189 10.7575 3.60734 10.5083 3.65516 10.2679C3.70298 10.0275 3.82102 9.80669 3.99435 9.63336C4.16768 9.46003 4.38851 9.34199 4.62893 9.29417C4.86934 9.24635 5.11854 9.27089 5.345 9.3647C5.57147 9.4585 5.76503 9.61735 5.90121 9.82117C6.0374 10.025 6.11009 10.2646 6.11009 10.5097C6.11009 10.8384 5.97951 11.1537 5.74708 11.3861C5.51466 11.6185 5.19942 11.7491 4.87072 11.7491ZM9.1011 11.7491C8.85597 11.7491 8.61635 11.6764 8.41254 11.5402C8.20872 11.404 8.04987 11.2105 7.95607 10.984C7.86226 10.7575 7.83772 10.5083 7.88554 10.2679C7.93336 10.0275 8.0514 9.80669 8.22473 9.63336C8.39806 9.46003 8.61889 9.34199 8.85931 9.29417C9.09972 9.24635 9.34892 9.27089 9.57538 9.3647C9.80185 9.4585 9.99541 9.61735 10.1316 9.82117C10.2678 10.025 10.3405 10.2646 10.3405 10.5097C10.3405 10.6735 10.308 10.8357 10.245 10.9869C10.1819 11.1381 10.0895 11.2753 9.97309 11.3905C9.85669 11.5057 9.71859 11.5968 9.56679 11.6583C9.41499 11.7199 9.2525 11.7507 9.0887 11.7491H9.1011ZM13.3315 11.7491C13.0863 11.7491 12.8467 11.6764 12.6429 11.5402C12.4391 11.404 12.2802 11.2105 12.1864 10.984C12.0926 10.7575 12.0681 10.5083 12.1159 10.2679C12.1637 10.0275 12.2818 9.80669 12.4551 9.63336C12.6284 9.46003 12.8493 9.34199 13.0897 9.29417C13.3301 9.24635 13.5793 9.27089 13.8058 9.3647C14.0322 9.4585 14.2258 9.61735 14.362 9.82117C14.4982 10.025 14.5708 10.2646 14.5708 10.5097C14.5708 10.8384 14.4403 11.1537 14.2078 11.3861C13.9754 11.6185 13.6602 11.7491 13.3315 11.7491Z" fill="#343434"/>
<path d="M19.2843 12.3649C20.3838 11.0731 20.9911 9.43419 20.9987 7.73789C20.9987 3.46207 17.1319 9.93571e-05 12.3603 9.93571e-05C10.4144 -0.00893587 8.5155 0.598468 6.93604 1.73521C7.64451 1.59142 8.36548 1.51808 9.0884 1.51626C14.5623 1.51626 19.0034 5.54421 19.0034 10.4934C19.0034 10.7082 19.0034 10.9065 18.9786 11.1296C18.9786 11.1544 18.9786 11.1792 18.9786 11.204C18.842 12.7267 18.2905 14.1827 17.3839 15.4137C18.3356 15.7693 19.3388 15.9675 20.3543 16.0003C20.4018 15.9996 20.4483 15.9856 20.4883 15.9599C20.5284 15.9343 20.5605 15.898 20.5811 15.8551C20.6017 15.8122 20.6099 15.7644 20.6049 15.7171C20.5998 15.6698 20.5817 15.6248 20.5526 15.5872C19.9122 14.7982 19.5115 13.4307 19.2843 12.3649Z" fill="#343434"/>
</svg>
