<svg width="32" height="32" viewBox="0 0 32 32" fill="none" xmlns="http://www.w3.org/2000/svg">
<circle cx="16" cy="16" r="16" fill="#DDDDDD"/>
<path d="M16.7474 6.6759H15.2036C14.7147 6.6759 14.3183 7.07227 14.3183 7.5612C14.3183 8.62282 13.6233 9.46734 12.7886 9.88061C12.5779 9.98497 12.3732 10.0996 12.1754 10.2237C11.3965 10.7125 10.3346 10.8764 9.42435 10.3588C8.98379 10.1083 8.42371 10.2583 8.16741 10.6955L7.39736 12.0091C7.15507 12.4225 7.2975 12.9541 7.71398 13.1909C8.62574 13.7094 9.01126 14.7175 8.96221 15.6335C8.95572 15.7548 8.95242 15.877 8.95242 16C8.95242 16.123 8.95572 16.2452 8.96221 16.3665C9.01126 17.2825 8.62574 18.2906 7.71398 18.809C7.2975 19.0458 7.15507 19.5775 7.39736 19.9908L8.16742 21.3044C8.42371 21.7416 8.98379 21.8917 9.42435 21.6412C10.3346 21.1236 11.3965 21.2875 12.1754 21.7762C12.3732 21.9004 12.5779 22.015 12.7886 22.1193C13.6233 22.5326 14.3183 23.3771 14.3183 24.4388C14.3183 24.9277 14.7147 25.3241 15.2036 25.3241H16.7474C17.2631 25.3241 17.6812 24.906 17.6812 24.3902C17.6812 23.3281 18.365 22.4775 19.1902 22.0444C19.3575 21.9566 19.5207 21.8622 19.6796 21.7617C20.4822 21.2536 21.5812 21.0761 22.5233 21.6118C22.9925 21.8786 23.589 21.7188 23.8619 21.2531L24.5469 20.0848C24.8195 19.6198 24.6592 19.0216 24.1907 18.7552C23.2469 18.2186 22.8436 17.1786 22.8755 16.2311C22.8781 16.1544 22.8794 16.0774 22.8794 16C22.8794 15.9226 22.8781 15.8456 22.8755 15.7689C22.8436 14.8213 23.2469 13.7814 24.1907 13.2448C24.6592 12.9783 24.8195 12.3802 24.5469 11.9152L23.862 10.7468C23.589 10.2812 22.9925 10.1214 22.5233 10.3882C21.5812 10.9239 20.4822 10.7463 19.6796 10.2383C19.5207 10.1377 19.3575 10.0434 19.1902 9.95557C18.365 9.52243 17.6812 8.67189 17.6812 7.60971C17.6812 7.09398 17.2631 6.6759 16.7474 6.6759ZM15.9159 19.5257C13.956 19.5257 12.3475 17.9579 12.3475 16C12.3475 14.042 13.956 12.4742 15.9159 12.4742C17.8758 12.4742 19.4843 14.042 19.4843 16C19.4843 17.9579 17.8758 19.5257 15.9159 19.5257Z" fill="#DDDDDD" stroke="#7B7B7B" stroke-width="1.5"/>
</svg>
