<svg width="18" height="18" viewBox="0 0 18 18" fill="none" xmlns="http://www.w3.org/2000/svg">
<path d="M9 18C13.9706 18 18 13.9706 18 9C18 4.02944 13.9706 0 9 0C4.02944 0 0 4.02944 0 9C0 13.9706 4.02944 18 9 18Z" fill="#68F99E"/>
<path d="M7.8759 10.9441H9.72315C9.50835 8.79416 12 8.07751 12 5.91233C12 3.94536 10.7399 3 9.00716 3C7.76134 3 6.74463 3.62516 6 4.52478L7.1599 5.66836C7.63246 5.14994 8.13365 4.81449 8.76372 4.81449C9.50835 4.81449 9.98091 5.28717 9.98091 6.0648C9.98091 7.51334 7.53222 8.4892 7.8759 10.9441ZM8.80668 15C9.55131 15 10.1241 14.3748 10.1241 13.5362C10.1241 12.6976 9.55131 12.0877 8.80668 12.0877C8.04773 12.0877 7.50358 12.6976 7.50358 13.5362C7.50358 14.3748 8.04773 15 8.80668 15Z" fill="#030C37"/>
</svg>
